<?xml version="1.0" encoding="UTF-8" standalone="no"?>
<svg
   xmlns:dc="http://purl.org/dc/elements/1.1/"
   xmlns:cc="http://creativecommons.org/ns#"
   xmlns:rdf="http://www.w3.org/1999/02/22-rdf-syntax-ns#"
   xmlns:svg="http://www.w3.org/2000/svg"
   xmlns="http://www.w3.org/2000/svg"
   xmlns:sodipodi="http://sodipodi.sourceforge.net/DTD/sodipodi-0.dtd"
   xmlns:inkscape="http://www.inkscape.org/namespaces/inkscape"
   version="1.0"
   width="140cm"
   height="90cm"
   viewBox="0 0 5291.3385 3401.5749"
   id="svg37"
   sodipodi:docname="bandiera_pirata_sicula.svg"
   inkscape:version="0.92.4 (5da689c313, 2019-01-14)"
   inkscape:export-filename="/home/peppe/Documenti/partitopiratasiculo.github.io/bandiera_pirata_sicula.png"
   inkscape:export-xdpi="7.257143"
   inkscape:export-ydpi="7.257143">
  <metadata
     id="metadata43">
    <rdf:RDF>
      <cc:Work
         rdf:about="">
        <dc:format>image/svg+xml</dc:format>
        <dc:type
           rdf:resource="http://purl.org/dc/dcmitype/StillImage" />
        <dc:title></dc:title>
      </cc:Work>
    </rdf:RDF>
  </metadata>
  <defs
     id="defs41" />
  <sodipodi:namedview
     pagecolor="#ffffff"
     bordercolor="#666666"
     borderopacity="1"
     objecttolerance="10"
     gridtolerance="10"
     guidetolerance="10"
     inkscape:pageopacity="0"
     inkscape:pageshadow="2"
     inkscape:window-width="1920"
     inkscape:window-height="1016"
     id="namedview39"
     showgrid="false"
     inkscape:zoom="0.19213216"
     inkscape:cx="2630.6485"
     inkscape:cy="1844.2365"
     inkscape:window-x="0"
     inkscape:window-y="27"
     inkscape:window-maximized="1"
     inkscape:current-layer="svg37"
     units="cm"
     fit-margin-top="0"
     fit-margin-left="0"
     fit-margin-right="0"
     fit-margin-bottom="0" />
  <rect
     id="rect2"
     height="3401.5747"
     width="5291.3384"
     y="4.8059181e-05"
     x="0.00010188546"
     style="stroke-width:7.14567471" />
  <g
     id="g1824"
     transform="translate(0,114.52175)">
    <g
       transform="matrix(5.7911968,0,0,5.7911968,473.60197,702.2269)"
       id="bones"
       style="fill:#ffffff">
      <path
         inkscape:connector-curvature="0"
         d="m 255,221 c -7,0 -16,5 -20,11 -2,4 -5,7 -8,7 -9,2 -19,17 -17,25 2,10 10,14 28,16 28,4 76,23 124,49 48,27 66,36 70,36 3,0 14,8 24,17 5,5 13,11 17,14 15,9 25,7 35,-9 2,-3 4,-5 6,-4 4,1 13,-3 16,-8 2,-5 2,-14 -2,-17 -6,-6 -11,-7 -38,-9 -29,-1 -43,-5 -61,-15 -5,-3 -14,-7 -19,-10 -5,-3 -19,-11 -30,-17 -24,-14 -58,-33 -73,-40 -14,-8 -26,-18 -34,-30 -7,-11 -12,-16 -18,-16 z m -7.5,36.875 c 0.25,-0.125 0,0.625 -0.5,2.125 -1,4 0,4 10,7 10,3 23,9 23,11 0,1 -2,0 -7,-2 -3,-1 -11,-4 -17,-5 -7,-2 -12,-4 -13,-5 -1,-1 0,-3 2,-5 1.5,-2 2.25,-3 2.5,-3.125 z M 448,360 c 1,0 10,6 22,16 10,9 12,9 17,8 7,-2 10,0 4,3 -6,3 -8,3 -23,-9 -7,-7 -15,-13 -18,-14 -3,-1 -5,-4 -2,-4 z m 58.34375,3 c 0.47266,-0.006 1.03125,0 1.65625,0 2,0 4,1 4,2 0,3 -3,3 -6,1 -2.625,-2.625 -2.96484,-2.95898 0.34375,-3 z"
         id="path1144" />
      <path
         inkscape:connector-curvature="0"
         d="m 339,320 -16,8 c -29,13 -41,15 -84,13 -11,-1 -15,0 -21,3 -7,4 -9,8 -8,16 2,6 5,9 14,12 5,2 7,4 8,8 1,3 4,8 7,10 11,9 26,4 51,-15 7,-5 18,-11 24,-13 9,-4 27,-12 50,-22 l 5,-2 -8,-5 c -5,-3 -12,-7 -15,-9 z M 236.34375,351.34375 C 237.125,351.3125 237.75,351.5 238,352 c 1,0 0,2 -1,3 -3,2 -5,2 -6,0 -0.75,-1.5 3,-3.5625 5.34375,-3.65625 z m 9.8125,13.0625 c 0.44092,-0.1897 1.65625,1.65625 3.84375,5.59375 4,8 5,9 13,6 4,-1 4,-1 1,3 -2,2 -5,3 -9,3 -5,0 -6,0 -7,-7 -1.6875,-6.75 -2.41064,-10.34985 -1.84375,-10.59375 z"
         id="path1146" />
      <path
         inkscape:connector-curvature="0"
         d="M 497.65625,226.9375 C 495.62817,226.92285 493.6875,227.25 492,228 c -2,1 -6,6 -10,11 -11,16 -23,25 -48,37 -35,16 -54,25 -53,26 0,1 7,5 14,9 l 14,8 18,-7 c 27,-11 62,-21 82,-23 22,-3 23,-3 28,-8 4,-5 5,-14 0,-21 -1,-3 -6,-8 -11,-11 -6,-3 -9,-7 -9,-9 0,-6.5 -10.55542,-12.99902 -19.34375,-13.0625 z M 505,264 l 1,5 c 2,5 -2,9 -8,9 -2,0 -9,2 -16,4 -6,1 -11,2 -11,2 0,-2 4,-4 19,-7 12,-3 13,-3 14,-8 z"
         id="path1148" />
    </g>
    <g
       transform="matrix(37.098048,0,0,37.098048,-887.91972,-3377.4074)"
       id="layer1">
      <g
         transform="matrix(3.7044667,0,0,3.7044667,-43.831605,-848.89964)"
         id="g5496">
        <path
           inkscape:connector-curvature="0"
           style="clip-rule:evenodd;fill:#000000;fill-rule:evenodd;stroke:#000000;stroke-width:0.00422796;image-rendering:optimizeQuality;shape-rendering:geometricPrecision;text-rendering:geometricPrecision"
           id="path8"
           d="m 37.069933,254.84901 c 0.225492,-0.0631 0.464513,-0.0586 0.699024,-0.0406 0.126275,0.009 0.198432,0.13078 0.270589,0.22098 0.07667,0.0992 0.180393,0.1849 0.207452,0.31118 0.175883,0.65843 0.568238,1.24922 0.622356,1.93923 0.02706,0.35176 0.09471,0.69902 0.184903,1.04177 0.03608,0.31117 0.02255,0.62686 0.02706,0.94255 0.0045,0.16235 -0.05863,0.31569 -0.07216,0.47804 0.07216,0.20294 0.243531,0.34726 0.360786,0.52314 0.08118,-0.0316 0.171374,-0.0541 0.239021,-0.11725 0.05412,-0.0767 0.07667,-0.17138 0.112746,-0.26157 0.01804,0.0271 0.04059,0.0541 0.05863,0.0812 0.009,-0.0902 0.01804,-0.18039 0.0451,-0.27059 0.06314,-0.0406 0.135294,-0.0676 0.202942,-0.0947 -0.02255,-0.23902 0.01353,-0.50059 -0.126275,-0.71256 -0.112746,-0.18039 -0.252551,-0.36078 -0.27059,-0.57725 -0.02706,-0.3653 0.03608,-0.7306 0.0902,-1.08687 0.121765,-0.0631 0.284119,-0.14883 0.26157,-0.31118 -0.009,-0.20745 -0.01353,-0.4149 0.01804,-0.61785 0.01353,0 0.0451,0.005 0.05863,0.009 -0.01804,0.17589 -0.03608,0.35177 -0.04961,0.52765 0.03608,0 0.09922,0.005 0.130785,0.009 -0.02255,-0.11274 0.02706,-0.21196 0.09922,-0.29314 0.05863,0.0271 0.112745,0.0541 0.166863,0.0857 0.0045,-0.0316 0.01353,-0.0902 0.01804,-0.12177 0.05412,0.0135 0.103726,0.0271 0.153334,0.0406 -0.01804,-0.12176 -0.03157,-0.24804 -0.03608,-0.37431 0.08569,0.16235 0.121765,0.34274 0.148824,0.52314 -0.08118,0.005 -0.157844,0.009 -0.23902,0.0135 0,0.0226 -0.0045,0.0631 -0.0045,0.0857 -0.01353,0.15334 -0.02255,0.30667 0.02706,0.4555 0.04961,-0.0812 0.108236,-0.15785 0.130785,-0.25255 -0.01804,-0.0767 -0.05412,-0.14883 -0.08118,-0.22099 l 0.03157,-0.009 c 0.117255,0.0722 0.225491,0.14883 0.342746,0.21648 0.02255,-0.16236 0.009,-0.32471 0.009,-0.48707 0.117256,0.28863 0.07216,0.60883 0.157844,0.91099 -0.04059,0.005 -0.121765,0.009 -0.162354,0.0135 0.0451,0.10824 0.09471,0.21196 0.144315,0.31118 0.02706,-0.10824 0.0451,-0.22098 0.07216,-0.33373 0.009,-0.0316 0.02706,-0.10373 0.03608,-0.1398 0.01804,0.14882 0.02706,0.29313 0.03608,0.44196 -0.05863,0.0226 -0.117255,0.0496 -0.171373,0.0767 0.03157,0.20294 0.07667,0.40588 0.103726,0.60882 -0.02255,0.13981 -0.08569,0.2751 -0.198433,0.36079 -0.162353,0.13529 -0.320197,0.28412 -0.455492,0.44647 -0.07667,0.18039 -0.05863,0.40138 0.0451,0.57275 -0.0045,-0.0496 -0.009,-0.0947 -0.01353,-0.14431 0.211962,-0.23001 0.478041,-0.41491 0.635885,-0.69452 0.07216,0.31118 0.0451,0.66746 -0.139804,0.93354 -0.0902,0.13078 -0.0902,0.29313 -0.153334,0.43294 -0.08118,0.11274 -0.171374,0.21647 -0.2751,0.30667 -0.207452,0.14431 -0.482551,0.23451 -0.581768,0.49157 0.2751,0.13078 0.487062,0.38784 0.54118,0.68549 0.06765,0.40589 0.288629,0.76667 0.338237,1.17256 0.01804,0.10372 0.01804,0.24353 0.130785,0.29765 0.139804,0.0631 0.279609,0.12627 0.383335,0.24353 0.234511,0.23451 0.52314,0.41039 0.730592,0.67196 0.108236,0.1353 0.239021,0.25706 0.378825,0.36981 0.01804,-0.0271 0.04961,-0.0767 0.06765,-0.0992 -0.126275,-0.11726 -0.26157,-0.22549 -0.342747,-0.37432 -0.08569,-0.15784 -0.171373,-0.32019 -0.26157,-0.47353 0.01804,-0.0361 0.04059,-0.0676 0.05863,-0.10372 -0.05412,-0.0631 -0.135295,-0.12628 -0.117256,-0.21647 0.05863,-0.52314 0.189413,-1.04177 0.135295,-1.56491 -0.03608,-0.30667 -0.04961,-0.63138 -0.211962,-0.89746 -0.108236,-0.18941 -0.157844,-0.40588 -0.275099,-0.58628 -0.112746,-0.15784 -0.02706,-0.35176 -0.05863,-0.53216 0.130785,-0.0902 0.297649,-0.10372 0.446473,-0.16235 0.24804,-0.13981 0.50961,-0.27059 0.703533,-0.48706 -0.02706,-0.0631 -0.05412,-0.12177 -0.08118,-0.18491 0.0451,0.0406 0.0902,0.0767 0.135295,0.11726 0.198432,-0.22549 0.482551,-0.41039 0.793729,-0.34275 -0.0045,-0.0225 -0.009,-0.0721 -0.009,-0.0947 0.162353,0 0.320197,0.005 0.482551,0.005 -0.03157,0.0406 -0.06765,0.0812 -0.09922,0.12176 0.108236,-0.0586 0.216472,-0.11274 0.329217,-0.17137 0.06765,0.11274 0.126275,0.23 0.162354,0.35627 -0.202942,0.14432 -0.392355,0.30667 -0.608827,0.42844 -0.24353,0.13529 -0.333727,0.4149 -0.5051,0.61784 -0.135295,0.16236 -0.216472,0.3653 -0.216472,0.57726 0.144315,0.32922 0.180393,0.69001 0.26157,1.03726 0.01353,-0.005 0.0451,-0.009 0.05863,-0.0135 0.03157,0.19844 0.103726,0.38785 0.148824,0.58177 0.0902,0.30216 0.157844,0.60883 0.306668,0.88844 -0.02255,0.0496 -0.04961,0.0992 -0.07667,0.15333 0.108236,0.15785 0.04059,0.35628 0.126275,0.52314 0.09471,0.22549 0.144315,0.46451 0.211962,0.69902 0.06314,0.22099 0.05863,0.46903 0.193923,0.66746 0.144314,0.20294 0.171373,0.47804 0.117255,0.71706 -0.157844,0.31118 -0.396864,0.66746 -0.789219,0.67197 -0.230001,-0.10373 -0.464512,-0.21197 -0.721573,-0.23452 -0.532159,-0.0631 -1.055299,-0.19843 -1.582949,-0.28411 -0.563728,-0.0496 -1.055299,-0.35177 -1.5604,-0.57726 -0.135295,-0.0722 -0.338237,-0.10824 -0.347257,-0.29314 -0.02706,0.0135 -0.05863,0.0271 -0.08569,0.0406 -0.09922,-0.0992 -0.243531,-0.11275 -0.365296,-0.17138 -0.162354,-0.0812 -0.302159,-0.20745 -0.437454,-0.32921 -0.07667,0.0451 -0.184903,0.0676 -0.207452,0.16235 -0.03608,0.11726 -0.09471,0.23451 -0.08569,0.35628 0.0451,0.20745 0.207452,0.35627 0.360786,0.49157 -0.07667,-0.009 -0.148825,-0.018 -0.225492,-0.0271 0.06314,0.12627 0.144315,0.25706 0.293139,0.28863 0.225492,0.0541 0.460003,0.0902 0.667455,0.20745 -0.207452,0.11275 -0.441963,0.16235 -0.635886,0.29314 0.148824,0.0767 0.279609,0.1849 0.446473,0.22549 0.216472,0.0586 0.446473,0.0722 0.667454,0.0631 0.09471,0.005 0.198433,-0.009 0.284119,0.0316 0.293139,0.13078 0.559219,0.30215 0.811769,0.49608 -0.06314,-0.005 -0.130785,-0.0135 -0.193922,-0.018 0.09471,0.12627 0.220981,0.22098 0.320197,0.34274 0.06314,0.12628 0.0902,0.28412 0.202943,0.37883 0.09922,0.0496 0.202942,0.0902 0.297648,0.14431 -0.08569,-0.0225 -0.175883,-0.0496 -0.26157,-0.0676 0.05863,0.18039 0.25706,0.23 0.365296,0.37431 -0.0902,-0.0271 -0.180393,-0.0676 -0.270589,-0.10823 -0.03608,0.12176 0.03157,0.22098 0.103726,0.31117 -0.108236,-0.0541 -0.207452,-0.13078 -0.306669,-0.19392 -0.171373,0.0135 -0.320197,0.0902 -0.460002,0.17589 -0.121765,0.005 -0.184903,-0.11726 -0.248041,-0.19844 -0.06765,0.0271 -0.135294,0.0541 -0.198432,0.0857 0.03157,0.0496 0.06765,0.10373 0.103726,0.15784 -0.153334,-0.0451 -0.302158,-0.10372 -0.464512,-0.10372 -0.07667,0.009 -0.09471,-0.0812 -0.126275,-0.1353 -0.0451,0.005 -0.0902,0.0135 -0.130785,0.018 -0.230001,-0.23451 -0.581768,-0.45098 -0.568238,-0.82079 -0.130785,-0.0902 -0.243531,-0.20294 -0.27961,-0.36078 -0.01353,-0.0902 -0.0902,-0.13981 -0.166863,-0.17138 -0.03157,0.19844 -0.03157,0.4104 -0.126275,0.5953 -0.01353,0 -0.0451,-0.005 -0.05863,-0.005 -0.126275,-0.43294 -0.387845,-0.80275 -0.658435,-1.15451 -0.04059,-0.0857 -0.126275,-0.0992 -0.211962,-0.0767 -0.06314,0.0135 -0.121765,0.005 -0.171373,-0.0225 -0.009,-0.0271 -0.02706,-0.0722 -0.03157,-0.0992 0.09471,-0.0361 0.193923,-0.0722 0.288629,-0.11725 -0.153334,-0.0316 -0.311178,-0.0406 -0.464512,-0.0767 -0.01353,-0.0541 -0.02706,-0.10823 -0.03608,-0.16686 -0.03608,0.0586 -0.06765,0.11725 -0.103726,0.17137 -0.07216,-0.27961 -0.0451,-0.57275 -0.02255,-0.85687 0.02255,-0.10372 -0.07216,-0.17137 -0.108236,-0.25255 -0.03157,-0.14431 0.009,-0.30216 -0.04059,-0.44647 -0.135295,-0.0947 -0.27059,-0.19843 -0.365296,-0.33824 -0.207452,0.0947 -0.405885,0.19844 -0.586278,0.33824 -0.198432,0.15333 -0.441963,0.21196 -0.653925,0.33824 -0.108236,0.0676 -0.234511,0.0902 -0.351766,0.1398 -0.126275,0.0722 -0.243531,0.15785 -0.383336,0.20294 -0.193922,0.0767 -0.405884,0.0541 -0.604316,0.11275 -0.243531,0.0677 -0.53216,0.0316 -0.735102,0.21196 0.387845,-0.0406 0.78922,-0.0947 1.172555,0.0226 0.144314,0.0496 0.320198,0.0902 0.392355,0.23902 0.148824,0.0135 0.275099,0.0992 0.365296,0.21196 0.153334,0.16236 0.360786,0.24353 0.536669,0.3653 0.356277,0.23 0.78471,0.26157 1.172555,0.40588 0.234511,0.0947 0.496081,0.0496 0.739612,0.0812 0.220981,0.11726 0.275099,0.41491 0.24804,0.6404 -0.103726,0.23902 -0.139804,0.49608 -0.139804,0.74863 0.04059,0 0.07667,0 0.112745,0 0.06765,0.33823 0.153335,0.71255 -0.01804,1.03726 -0.05412,0 -0.108236,-0.005 -0.162354,-0.005 0.03157,0.0406 0.05863,0.0767 0.0902,0.11725 -0.220982,0.17589 -0.153334,0.55471 -0.441963,0.66746 -0.117256,0.0451 -0.26157,-0.0361 -0.26608,-0.16687 -0.009,-0.24353 -0.009,-0.48706 -0.07667,-0.72157 -0.0451,-0.1849 -0.193923,-0.32471 -0.26608,-0.49608 -0.08118,-0.20294 -0.225491,-0.37431 -0.365296,-0.53667 0.01353,-0.0541 0.02706,-0.10823 0.04059,-0.16235 -0.04961,0.0361 -0.09471,0.0767 -0.139805,0.11274 -0.315688,-0.19392 -0.685494,-0.24353 -1.03275,-0.36529 -0.175884,-0.0631 -0.365296,-0.0767 -0.550199,-0.10824 -0.248041,-0.0406 -0.482552,-0.14431 -0.726082,-0.19843 -0.311179,-0.12628 -0.708043,-0.10373 -0.915495,-0.40589 -0.009,0.0451 -0.02255,0.0902 -0.03608,0.1353 -0.234511,-0.17137 -0.52765,-0.17137 -0.793729,-0.26157 -0.356277,-0.0541 -0.735102,-0.10824 -1.028241,-0.33373 -0.144315,-0.19392 -0.248041,-0.42392 -0.288629,-0.66745 0.05412,-0.18941 0.139805,-0.36981 0.26157,-0.52314 0.153334,-0.19392 0.356276,-0.33824 0.505101,-0.53216 0.24353,-0.22098 0.419414,-0.51412 0.703533,-0.6855 0.02706,-0.14431 0.135294,-0.24353 0.23902,-0.33823 0,0.0541 0,0.10823 0,0.16235 0.05863,-0.10372 0.08569,-0.23 0.175884,-0.3202 0.365296,-0.37882 0.798239,-0.68549 1.244712,-0.95608 0.126275,-0.12176 0.297649,-0.18039 0.464512,-0.22549 0,-0.0722 0,-0.14882 -0.0045,-0.22549 0.03157,-0.005 0.09471,-0.018 0.121766,-0.0226 -0.03157,-0.0541 -0.06765,-0.10824 -0.09922,-0.16235 0.06765,-0.12177 0.126276,-0.24354 0.157844,-0.37883 -0.347256,0.0135 -0.590787,0.29314 -0.906475,0.40588 0.05412,-0.21647 0.171374,-0.40588 0.225492,-0.62235 -0.121766,0.0677 -0.257061,0.11274 -0.369806,0.18941 -0.09922,0.16686 -0.175884,0.35177 -0.315688,0.49157 -0.103726,0.11275 -0.26157,0.14883 -0.374316,0.25255 -0.130785,0.11275 -0.25255,0.23451 -0.392355,0.33824 0.03157,-0.0676 0.06314,-0.13079 0.09471,-0.19843 -0.09471,0.0135 -0.198433,0.009 -0.288629,0.0406 -0.05412,0.0406 -0.09922,0.0947 -0.144315,0.14431 -0.108236,-0.0451 -0.211962,-0.10824 -0.329217,-0.12628 -0.05412,0.0361 -0.09922,0.0812 -0.148824,0.12628 -0.07216,-0.0541 -0.148825,-0.11275 -0.220982,-0.16686 -0.144314,0.0406 -0.293139,0.0767 -0.432943,0.12176 -0.07667,-0.0677 -0.157844,-0.13078 -0.239021,-0.19392 0.157844,-0.0902 0.25706,-0.24804 0.333727,-0.4104 0.04961,-0.0722 -0.02706,-0.1398 -0.05863,-0.20294 0.09471,-0.0496 0.198433,-0.0902 0.288629,-0.14882 0.0451,-0.0677 0.06314,-0.14432 0.0902,-0.22098 -0.07216,-0.009 -0.144315,-0.018 -0.220982,-0.0271 0.175883,-0.0947 0.374316,-0.0992 0.568238,-0.0722 0.0451,-0.0722 0.09471,-0.13529 0.139805,-0.20294 -0.139805,-0.0947 -0.324708,-0.018 -0.482551,-0.0361 0.144314,-0.0677 0.302158,-0.0947 0.460002,-0.0857 0.239021,0.018 0.473532,-0.0361 0.712553,-0.0406 -0.144315,-0.0586 -0.302159,-0.0767 -0.450983,-0.11725 0.469022,-0.0451 0.906475,0.19392 1.370987,0.23 0,-0.0316 0.0045,-0.0902 0.0045,-0.12177 -0.175883,-0.0722 -0.25255,-0.24804 -0.302158,-0.4149 0.527649,0.14432 1.082358,0.0812 1.623537,0.0496 0.26157,0.005 0.52314,0.0812 0.78471,0.0947 0.243531,-0.21648 0.405885,-0.50511 0.631376,-0.74413 0.05863,0.0361 0.121765,0.0722 0.184903,0.10373 0.162354,-0.32922 -0.009,-0.69451 0.09471,-1.03726 0.08118,-0.28412 0.112746,-0.58177 0.216472,-0.86138 0.126275,-0.3202 0.302158,-0.63137 0.333727,-0.97863 -0.08569,0.0586 -0.171373,0.13078 -0.207452,0.23451 -0.112745,0.30216 -0.279609,0.58177 -0.50961,0.80726 -0.333727,0.27059 -0.757651,0.36981 -1.150006,0.52314 -0.482552,0.25706 -0.874907,0.66294 -1.204124,1.09589 -0.0451,-0.0271 -0.0902,-0.0541 -0.135295,-0.0812 0.03608,0.0767 0.07216,0.15784 0.117256,0.23451 -0.162354,0.11275 -0.284119,0.27059 -0.450983,0.37432 -0.126275,0.018 -0.26157,0.0271 -0.383335,-0.009 -0.216472,-0.14432 -0.401375,-0.33824 -0.491571,-0.58628 0.0045,0.0496 0.01353,0.0992 0.01804,0.14882 -0.157844,-0.0451 -0.315688,-0.0902 -0.478042,-0.12627 -0.0045,-0.0451 -0.01353,-0.0902 -0.01804,-0.1353 -0.06765,0.0271 -0.139805,0.0676 -0.216472,0.0767 -0.121765,-0.0271 -0.225491,-0.0947 -0.320197,-0.17137 -0.211962,-0.1849 -0.446473,-0.40138 -0.428434,-0.70353 -0.05863,-0.0361 -0.121765,-0.0676 -0.180393,-0.0992 0.0045,-0.0947 -0.01353,-0.19843 0.02706,-0.28863 0.05863,-0.0992 0.148824,-0.17588 0.225491,-0.26157 0.04059,0.0271 0.08118,0.0541 0.121766,0.0812 0.04059,0.12176 0.121765,0.22098 0.225491,0.28863 0.08118,0.018 0.162354,0.018 0.239021,0.0271 0.365296,0.0992 0.76667,0.0271 1.109417,0.21196 0.01353,-0.009 0.0451,-0.0271 0.05863,-0.0361 -0.04059,-0.0135 -0.117256,-0.0451 -0.153334,-0.0631 0.157844,-0.0631 0.333727,-0.0812 0.496081,-0.13529 0.112745,-0.0631 0.198432,-0.17138 0.293139,-0.25706 0.08569,-0.0767 0.198432,-0.12177 0.288628,-0.19844 0.09471,-0.13529 0.130785,-0.30666 0.248041,-0.42843 0.0902,-0.0902 0.202942,-0.15333 0.297649,-0.24353 0.130784,-0.11275 0.216471,-0.26157 0.333727,-0.38785 0.126275,-0.13078 0.270589,-0.24353 0.410394,-0.35627 0.121765,-0.10373 0.193923,-0.25255 0.324708,-0.35177 0.184902,-0.1398 0.396864,-0.26608 0.527649,-0.46451 0.121766,-0.18941 0.396865,-0.20294 0.482552,-0.41941 0.139804,-0.23001 0.324707,-0.43295 0.532159,-0.60432 z" />
        <path
           inkscape:connector-curvature="0"
           style="clip-rule:evenodd;fill:#ffffff;fill-rule:evenodd;stroke:#ffcb99;stroke-width:0.00422796;image-rendering:optimizeQuality;shape-rendering:geometricPrecision;text-rendering:geometricPrecision"
           id="path10"
           d="m 36.285223,255.92235 c 0.338237,-0.30216 0.653925,-0.62687 0.947064,-0.96962 0.162354,0.0135 0.338237,-0.005 0.496081,0.0631 0.117256,0.0496 0.130785,0.18941 0.171374,0.29765 0.04059,0.009 0.07667,0.0135 0.117255,0.0225 0.0045,0.21196 0.0451,0.45098 0.216472,0.5953 -0.04961,0.018 -0.09922,0.0406 -0.148825,0.0586 0.05412,0.0225 0.103726,0.0451 0.157844,0.0722 -0.02255,0.0406 -0.04059,0.0812 -0.05863,0.12177 0.0451,0.018 0.08569,0.0406 0.130785,0.0586 -0.02706,0.0361 -0.05412,0.0722 -0.08569,0.10373 0.03608,0.0271 0.09922,0.0722 0.135295,0.0992 -0.09471,0.005 -0.189413,0 -0.284119,-0.005 0.108235,0.0541 0.225491,0.0902 0.324707,0.15784 0.06314,0.0767 0.09922,0.17588 0.144315,0.26157 -0.03608,0.005 -0.112746,0.018 -0.148825,0.0271 0.0451,0.0451 0.09471,0.0902 0.139805,0.13529 -0.0451,0.0361 -0.0902,0.0677 -0.135295,0.10373 0.05412,0.009 0.112746,0.018 0.171374,0.0271 0.02706,0.10824 0.04961,0.21647 0.07667,0.32471 -0.09471,-0.018 -0.193923,-0.0361 -0.293139,-0.0541 0.162354,0.0812 0.315688,0.18941 0.410394,0.35177 -0.01353,0.0406 -0.03157,0.0857 -0.04961,0.13078 0.04961,0.0631 0.09922,0.12628 0.144314,0.18941 -0.06314,-0.005 -0.130784,-0.0135 -0.198432,-0.0225 0.121765,0.12628 0.189413,0.28863 0.207452,0.46001 -0.04059,0 -0.121765,0.005 -0.166863,0.005 0.07216,0.0631 0.139804,0.12176 0.184902,0.20745 -0.103726,-0.018 -0.207452,-0.0496 -0.311178,-0.0722 0.09471,0.0767 0.202943,0.13079 0.297649,0.19843 -0.01353,0.10373 0,0.21197 0.04059,0.31118 -0.0451,0.0631 -0.07667,0.13079 -0.121765,0.19392 0.05863,0.10824 0.06765,0.2255 0.06765,0.34275 -0.24804,0.0361 -0.563728,0.0631 -0.739611,-0.15784 -0.148824,0.0316 -0.293139,0.0812 -0.446473,0.11725 -0.184903,0.0316 -0.356276,-0.0676 -0.53216,-0.0992 -0.162353,0.0406 -0.306668,0.12627 -0.455492,0.20294 0.02255,-0.43745 0.03157,-0.88393 0.153334,-1.30785 0.03157,-0.0947 0.02255,-0.19392 0.0045,-0.28863 0.112745,-0.16235 0.157844,-0.36079 0.275099,-0.51863 0.04961,-0.18039 0.121766,-0.35177 0.171374,-0.52765 0.03608,-0.13529 -0.08569,-0.23 -0.157844,-0.32471 -0.103726,0.0361 -0.202942,0.0722 -0.306668,0.10824 -0.09471,0.29314 -0.225492,0.56824 -0.387846,0.82981 -0.08569,0.0767 -0.171373,0.15333 -0.171373,0.27961 -0.139805,0.0586 -0.275099,0.1398 -0.383335,0.24353 -0.103726,0.10372 -0.26157,0.0676 -0.387845,0.10823 -0.153335,0.0902 -0.311179,0.21647 -0.505101,0.18491 -0.144315,0.15784 -0.338237,0.25255 -0.491571,0.39686 -0.144315,0.13079 -0.378826,0.19843 -0.396865,0.42392 -0.0451,0.009 -0.09471,0.018 -0.144314,0.0271 -0.148825,0.22549 -0.28412,0.46452 -0.432944,0.69452 -0.175883,-0.0135 -0.356276,-0.018 -0.532159,-0.0541 0.0451,-0.0767 0.08569,-0.15785 0.09922,-0.24804 -0.04961,0.0316 -0.09922,0.0586 -0.148825,0.0857 -0.02255,-0.0631 -0.04059,-0.12176 -0.05863,-0.1849 -0.04059,0.0135 -0.08118,0.0271 -0.117256,0.0406 0.03608,-0.0451 0.07667,-0.0857 0.112746,-0.13078 -0.162354,-0.005 -0.338237,0 -0.469022,-0.11726 -0.03157,0.0406 -0.06765,0.0812 -0.103726,0.12628 -0.207452,-0.17138 -0.487061,-0.25256 -0.753141,-0.21648 0.0451,-0.0316 0.0902,-0.0631 0.135295,-0.0947 -0.09922,-0.0812 -0.175884,-0.18942 -0.26157,-0.28412 0.02255,-0.0496 0.05412,-0.0902 0.08118,-0.1353 -0.112745,-0.11274 -0.234511,-0.21647 -0.365296,-0.30216 0.03157,-0.10823 0.08118,-0.21196 0.121766,-0.32019 0.01353,0.009 0.04059,0.0271 0.05412,0.0361 -0.0045,0.0721 -0.01353,0.1398 -0.01804,0.21196 0.28412,0.11725 0.554709,0.30216 0.870397,0.31569 0.342747,0.009 0.699023,0.0857 1.028241,-0.0451 0.198432,-0.0677 0.338237,-0.23902 0.51863,-0.34275 0.153334,-0.0812 0.24353,-0.23902 0.333727,-0.38334 0.08118,-0.14431 0.26157,-0.1849 0.342747,-0.32921 0.09471,-0.15785 0.25706,-0.26157 0.360786,-0.4104 0.07216,-0.0947 0.153334,-0.1849 0.26608,-0.23451 0.02255,-0.0586 0.02255,-0.1398 0.09471,-0.17137 0.148824,-0.0857 0.243531,-0.23451 0.374316,-0.34726 0.08118,-0.0316 0.162353,-0.0451 0.24353,-0.0767 0.03608,-0.0586 0.04961,-0.13079 0.07216,-0.19393 0.189412,-0.0812 0.419414,-0.16235 0.473531,-0.38333 z" />
        <path
           inkscape:connector-curvature="0"
           style="clip-rule:evenodd;fill:#f1c63c;fill-rule:evenodd;stroke:#f1c63c;stroke-width:0.00422796;image-rendering:optimizeQuality;shape-rendering:geometricPrecision;text-rendering:geometricPrecision"
           id="path12"
           d="m 40.447794,256.80176 c 0.01804,-0.005 0.05863,-0.0135 0.07667,-0.018 0.02706,0.0722 0.06314,0.14432 0.08118,0.22099 -0.02255,0.0947 -0.08118,0.17137 -0.130785,0.25255 -0.04961,-0.14883 -0.04059,-0.30216 -0.02706,-0.4555 z" />
        <path
           inkscape:connector-curvature="0"
           style="clip-rule:evenodd;fill:#dcac34;fill-rule:evenodd;stroke:#dcac34;stroke-width:0.00422796;image-rendering:optimizeQuality;shape-rendering:geometricPrecision;text-rendering:geometricPrecision"
           id="path14"
           d="m 40.168184,256.92353 c 0.108236,-0.0451 0.06765,0.1398 -0.01804,0.12627 -0.07216,-0.009 -0.04059,-0.11274 0.01804,-0.12627 z" />
        <path
           inkscape:connector-curvature="0"
           style="clip-rule:evenodd;fill:#f1c63c;fill-rule:evenodd;stroke:#f1c63c;stroke-width:0.00422796;image-rendering:optimizeQuality;shape-rendering:geometricPrecision;text-rendering:geometricPrecision"
           id="path16-1"
           d="m 39.920144,257.21216 c 0.03157,-0.0451 0.08118,-0.0902 0.144314,-0.0676 0.112746,0.0496 0.193923,0.14431 0.27961,0.23 0.07667,-0.0271 0.153334,-0.0541 0.234511,-0.0812 0.130785,0.12628 0.26157,0.26157 0.288629,0.4555 0.03608,0 0.07216,0.005 0.108236,0.005 -0.0045,0.14882 -0.02255,0.29765 -0.08569,0.43294 -0.06314,-0.0406 -0.121766,-0.0857 -0.184903,-0.12627 -0.06765,0.15333 -0.108236,0.32921 -0.03608,0.48706 0.04059,-0.0767 0.04961,-0.17589 0.117256,-0.24353 0.05863,-0.018 0.121765,-0.0226 0.180393,-0.0361 -0.01353,0.11725 -0.02706,0.23 -0.0451,0.34274 -0.207452,0.0902 -0.315688,0.28863 -0.455493,0.45099 -0.162354,0.18039 -0.144314,0.43745 -0.207452,0.65843 -0.0451,0.24353 -0.189413,0.45098 -0.369806,0.62236 -0.0902,0.1398 -0.234511,0.29314 -0.175883,0.46902 0.202942,-0.22549 0.405884,-0.45098 0.653925,-0.62687 0.0902,-0.0676 0.153334,-0.15784 0.220981,-0.24353 -0.01353,-0.0226 -0.04059,-0.0631 -0.05412,-0.0857 0.04961,0.005 0.103726,0.005 0.153335,0.009 0.06314,-0.1353 0.148824,-0.26608 0.297648,-0.31569 -0.0451,0.10372 -0.09471,0.20294 -0.139804,0.30216 -0.06765,0.18941 -0.220982,0.32921 -0.297649,0.51412 -0.162354,0.10823 -0.306668,0.23451 -0.460002,0.35176 -0.153335,0.12177 -0.333728,0.18491 -0.514121,0.26157 -0.01353,-0.23451 0.0451,-0.46 0.153334,-0.66294 -0.05863,-0.005 -0.117255,-0.009 -0.171373,-0.0135 0.08118,-0.0361 0.171373,-0.0496 0.24804,-0.0992 0.06314,-0.0676 0.07667,-0.16235 0.103727,-0.24804 0.06314,-0.0451 0.135294,-0.0812 0.162353,-0.15333 0.117256,-0.26157 0.121766,-0.55471 0.184903,-0.82981 -0.166863,-0.0496 -0.25255,-0.22098 -0.365296,-0.34275 0.02255,-0.0451 0.04961,-0.0902 0.07216,-0.13529 -0.166863,-0.0586 -0.225491,-0.23902 -0.207452,-0.40589 -0.009,-0.0947 0.0902,-0.14431 0.117256,-0.22549 -0.01353,-0.0812 -0.04059,-0.16235 -0.04961,-0.24804 0.07216,-0.0947 0.166863,-0.16686 0.275099,-0.20745 0,-0.0722 0.0045,-0.14431 0.0045,-0.21647 -0.06314,0.009 -0.121765,0.0135 -0.180393,0.0225 z" />
        <path
           inkscape:connector-curvature="0"
           style="clip-rule:evenodd;fill:#020200;fill-rule:evenodd;stroke:#020200;stroke-width:0.00422796;image-rendering:optimizeQuality;shape-rendering:geometricPrecision;text-rendering:geometricPrecision"
           id="path20"
           d="m 40.524461,257.57745 c 0.01353,-0.0722 0.0045,-0.15784 0.0902,-0.18941 -0.0045,0.0631 -0.0045,0.12628 -0.009,0.18941 -0.01804,0 -0.05863,0 -0.08118,0 z" />
        <path
           inkscape:connector-curvature="0"
           style="clip-rule:evenodd;fill:#b20000;fill-rule:evenodd;stroke:#b20000;stroke-width:0.00422796;image-rendering:optimizeQuality;shape-rendering:geometricPrecision;text-rendering:geometricPrecision"
           id="path22"
           d="m 40.903286,257.42863 c 0.04059,-0.005 0.121766,-0.009 0.162354,-0.0135 l 0.05412,-0.009 c -0.02706,0.11275 -0.0451,0.22549 -0.07216,0.33373 -0.04961,-0.0992 -0.09922,-0.20294 -0.144315,-0.31118 z" />
        <path
           inkscape:connector-curvature="0"
           style="clip-rule:evenodd;fill:#020200;fill-rule:evenodd;stroke:#020200;stroke-width:0.00422796;image-rendering:optimizeQuality;shape-rendering:geometricPrecision;text-rendering:geometricPrecision"
           id="path24"
           d="m 38.174841,257.60902 c 0.144314,0.005 0.315688,-0.0135 0.419414,0.10373 -0.144315,-0.018 -0.284119,-0.0541 -0.419414,-0.10373 z" />
        <path
           inkscape:connector-curvature="0"
           style="clip-rule:evenodd;fill:#020100;fill-rule:evenodd;stroke:#020100;stroke-width:0.00422796;image-rendering:optimizeQuality;shape-rendering:geometricPrecision;text-rendering:geometricPrecision"
           id="path26"
           d="m 39.942693,257.98785 c 0.03608,-0.13079 0.08569,-0.26157 0.180393,-0.36079 -0.02255,0.12177 -0.07667,0.23902 -0.08118,0.3653 -0.02706,0 -0.07667,-0.005 -0.09922,-0.005 z" />
        <path
           inkscape:connector-curvature="0"
           style="clip-rule:evenodd;fill:#131005;fill-rule:evenodd;stroke:#131005;stroke-width:0.00422796;image-rendering:optimizeQuality;shape-rendering:geometricPrecision;text-rendering:geometricPrecision"
           id="path28"
           d="m 40.199753,257.87059 c -0.02255,-0.12627 0.05863,-0.23902 0.193923,-0.24353 0.02255,0.13079 -0.06765,0.22098 -0.193923,0.24353 z" />
        <path
           inkscape:connector-curvature="0"
           style="clip-rule:evenodd;fill:#020100;fill-rule:evenodd;stroke:#020100;stroke-width:0.00422796;image-rendering:optimizeQuality;shape-rendering:geometricPrecision;text-rendering:geometricPrecision"
           id="path30"
           d="m 40.488382,257.67216 c 0.09471,0.0902 0.184903,0.18941 0.234511,0.31569 -0.04961,-0.0316 -0.09922,-0.0631 -0.148824,-0.0992 -0.03157,0.0722 -0.06314,0.14432 -0.09471,0.21196 -0.02255,-0.1398 -0.009,-0.28412 0.009,-0.42843 z" />
        <path
           inkscape:connector-curvature="0"
           style="clip-rule:evenodd;fill:#020100;fill-rule:evenodd;stroke:#020100;stroke-width:0.00422796;image-rendering:optimizeQuality;shape-rendering:geometricPrecision;text-rendering:geometricPrecision"
           id="path32"
           d="m 41.241523,258.21785 c -0.0451,-0.11275 -0.03157,-0.23451 0.0451,-0.32922 0.02706,0.11275 0.02255,0.23 -0.0451,0.32922 z" />
        <path
           inkscape:connector-curvature="0"
           style="clip-rule:evenodd;fill:#010100;fill-rule:evenodd;stroke:#010100;stroke-width:0.00422796;image-rendering:optimizeQuality;shape-rendering:geometricPrecision;text-rendering:geometricPrecision"
           id="path34"
           d="m 39.974262,258.29452 c 0.08569,-0.0586 0.184903,-0.0947 0.284119,-0.11275 0.08118,0.005 0.148824,0.0631 0.220982,0.0992 -0.05863,0.005 -0.117256,0.0135 -0.171374,0.0226 -0.08569,0.0722 -0.06765,0.18941 -0.08118,0.28411 -0.07216,-0.10823 -0.144314,-0.21647 -0.25255,-0.29313 z" />
        <path
           inkscape:connector-curvature="0"
           style="clip-rule:evenodd;fill:#020200;fill-rule:evenodd;stroke:#020200;stroke-width:0.00422796;image-rendering:optimizeQuality;shape-rendering:geometricPrecision;text-rendering:geometricPrecision"
           id="path36"
           d="m 38.400332,258.21785 c 0.126275,0.009 0.234511,0.0677 0.329218,0.1398 -0.121766,-0.009 -0.25706,-0.0271 -0.329218,-0.1398 z" />
        <path
           inkscape:connector-curvature="0"
           style="clip-rule:evenodd;fill:#f5ca00;fill-rule:evenodd;stroke:#f5ca00;stroke-width:0.00422796;image-rendering:optimizeQuality;shape-rendering:geometricPrecision;text-rendering:geometricPrecision"
           id="path38"
           d="m 31.355983,258.26746 c 0.157843,0.10372 0.311178,0.20745 0.464512,0.31569 -0.07667,-0.009 -0.157844,-0.009 -0.239021,-0.0271 -0.103726,-0.0676 -0.184903,-0.16687 -0.225491,-0.28863 z" />
        <path
           inkscape:connector-curvature="0"
           style="clip-rule:evenodd;fill:#020100;fill-rule:evenodd;stroke:#020100;stroke-width:0.00422796;image-rendering:optimizeQuality;shape-rendering:geometricPrecision;text-rendering:geometricPrecision"
           id="path40"
           d="m 40.393676,258.87628 c 0,-0.17137 -0.01353,-0.36078 0.09471,-0.5051 0.02706,0.15334 -0.02706,0.29765 -0.05412,0.44648 0.103726,-0.0496 0.193923,-0.12628 0.284119,-0.19393 -0.04059,0.14883 -0.171373,0.24804 -0.324707,0.25255 z" />
        <path
           inkscape:connector-curvature="0"
           style="clip-rule:evenodd;fill:#ffffff;fill-rule:evenodd;stroke:#ffcb99;stroke-width:0.00422796;image-rendering:optimizeQuality;shape-rendering:geometricPrecision;text-rendering:geometricPrecision"
           id="path42"
           d="m 42.932708,258.93942 c 0.130785,-0.0225 0.234511,-0.11725 0.347257,-0.1849 0.02706,0.0316 0.05412,0.0631 0.08118,0.0947 0.135295,-0.14882 0.333727,-0.027 0.500591,-0.0361 0.121765,-0.0226 0.239021,-0.0631 0.360786,-0.0812 -0.234511,0.34726 -0.78922,0.38333 -0.892946,0.83432 -0.02255,-0.0225 -0.06765,-0.0631 -0.09471,-0.0857 0.0045,0.0812 0.03157,0.16235 0.0045,0.24353 -0.08118,0.0406 -0.162354,-0.0361 -0.239021,-0.0586 0.03608,0.0541 0.07667,0.10824 0.112746,0.16687 -0.0451,0.0541 -0.09922,0.10372 -0.135295,0.16686 -0.02255,0.0947 -0.0045,0.20745 -0.07667,0.28412 -0.0451,0.0767 -0.144315,0.0631 -0.216472,0.0812 0.07667,0.0812 0.162354,0.15784 0.26608,0.21196 -0.03608,0.14882 -0.03157,0.30216 -0.02706,0.45549 -0.06765,-0.0225 -0.135295,-0.0406 -0.202942,-0.0541 0.07667,0.0586 0.157844,0.11275 0.24353,0.16236 0.04059,0.20745 0.153334,0.39235 0.248041,0.57725 -0.03608,0 -0.103726,0 -0.135295,0 0.06765,0.0812 0.139805,0.16236 0.202942,0.25256 -0.08118,-0.0135 -0.162354,-0.0316 -0.239021,-0.0451 0.103726,0.0902 0.225492,0.17137 0.306669,0.28863 0.0451,0.10823 0.0451,0.22549 0.08118,0.33823 -0.02706,0 -0.08569,-0.005 -0.112745,-0.005 0.144314,0.14432 0.171373,0.35177 0.279609,0.52314 -0.09922,-0.0541 -0.193923,-0.10823 -0.297649,-0.15333 0.0902,0.17588 0.26608,0.28412 0.360787,0.45549 -0.0902,-0.0226 -0.175884,-0.0586 -0.26608,-0.0902 0.103726,0.12628 0.211962,0.25256 0.297648,0.39236 -0.08118,-0.0361 -0.162353,-0.0767 -0.24804,-0.11275 0.0902,0.0992 0.189413,0.19393 0.27059,0.29765 -0.03157,0.0496 -0.06314,0.0992 -0.0902,0.14883 0.04059,0.0135 0.121765,0.0316 0.162354,0.0406 -0.01804,0.0541 -0.04059,0.10372 -0.05863,0.15784 0.04059,0.0451 0.103726,0.0812 0.09922,0.14882 0,0.15334 0.07216,0.28412 0.108236,0.42844 -0.05863,-0.0316 -0.117255,-0.0631 -0.171373,-0.0947 0.117255,0.11726 0.234511,0.23451 0.338237,0.3653 -0.03157,0.0135 -0.0902,0.0451 -0.121766,0.0586 0.07216,0.10824 0.139805,0.21648 0.207452,0.32922 -0.0902,-0.0586 -0.175883,-0.13078 -0.284119,-0.14882 0.117256,0.12627 0.27059,0.24353 0.293139,0.42843 -0.06765,-0.0451 -0.130785,-0.0947 -0.193923,-0.14431 0.03157,0.0767 0.06314,0.15333 0.09471,0.23451 -0.04961,-0.018 -0.09922,-0.0361 -0.153334,-0.0541 0.03608,0.0541 0.06765,0.10824 0.09922,0.16235 -0.126275,0.0902 -0.25255,0.19844 -0.405885,0.23902 -0.369805,-0.0812 -0.744121,-0.12627 -1.104907,-0.23902 -0.306668,-0.0947 -0.640396,-0.0361 -0.947064,-0.14882 -0.193922,-0.0631 -0.410394,-0.0271 -0.586277,-0.13079 -0.06765,-0.0361 -0.139805,-0.0631 -0.207452,-0.0947 0.02706,-0.0496 0.05412,-0.10373 0.08569,-0.15785 -0.09471,0.0586 -0.193922,0.11726 -0.293138,0.17138 -0.05412,-0.0812 -0.09471,-0.19393 -0.202943,-0.20294 -0.144314,-0.018 -0.288629,-0.0406 -0.432943,-0.0631 0.01353,-0.0677 0.02706,-0.13079 0.04059,-0.19392 -0.108235,0.0451 -0.198432,0.15784 -0.324707,0.12627 0.08118,-0.0947 0.166863,-0.18941 0.239021,-0.28863 -0.126275,0.0496 -0.230001,0.1353 -0.333728,0.21196 -0.02255,-0.0631 -0.04059,-0.13078 -0.05863,-0.19392 0.117255,-0.0406 0.24804,-0.0767 0.315688,-0.19392 -0.189413,0.0451 -0.378826,0.16686 -0.572748,0.10372 -0.02706,-0.0451 -0.04059,-0.0947 -0.0451,-0.14431 -0.05863,0.018 -0.117255,0.0406 -0.175883,0.0586 0,-0.20745 0.230001,-0.23902 0.320198,-0.38785 -0.189413,0.0406 -0.329218,0.18942 -0.52314,0.23 0.01353,-0.0406 0.04059,-0.12176 0.05412,-0.15784 -0.0451,0 -0.139805,0.005 -0.184903,0.009 0.06765,-0.12177 0.189413,-0.20294 0.27059,-0.31118 -0.153335,0.0676 -0.27961,0.23902 -0.464513,0.17588 0.0451,-0.0586 0.09471,-0.11274 0.144315,-0.16686 -0.09471,0.0135 -0.184903,0.0406 -0.279609,0.0496 0.103726,-0.0902 0.266079,-0.10824 0.338237,-0.23451 0.130785,-0.19843 0.320197,-0.34275 0.50059,-0.48706 -0.04961,-0.005 -0.148824,-0.0135 -0.198432,-0.018 0.04961,-0.0586 0.103726,-0.11726 0.162354,-0.17589 -0.02706,-0.018 -0.05412,-0.0406 -0.08118,-0.0586 0.184903,-0.0135 0.202942,-0.2255 0.338237,-0.31569 0.117255,0.11274 0.26157,0.17588 0.414904,0.21196 -0.009,0.0225 -0.03157,0.0677 -0.04059,0.0902 0.207452,0.018 0.383335,0.1398 0.590787,0.17588 0.135295,0.13529 0.342747,0.24804 0.52314,0.12177 0.01353,0.0541 0.02255,0.10372 0.03157,0.15333 0.03608,-0.0316 0.07216,-0.0677 0.108235,-0.0992 0.0045,0.0226 0.01804,0.0631 0.02255,0.0857 0.01804,-0.0271 0.03608,-0.0541 0.05863,-0.0767 0.193923,0.10373 0.320198,0.29314 0.505101,0.4104 0.25706,0.16686 0.500591,0.39235 0.568238,0.70804 0.03608,-0.0271 0.07216,-0.0496 0.108236,-0.0722 0.05863,0.0541 0.117255,0.10824 0.175883,0.16236 0.07667,-0.0767 0.153334,-0.15785 0.230001,-0.23451 -0.03608,-0.12628 -0.06765,-0.26157 -0.157844,-0.3653 -0.112745,-0.13079 -0.193922,-0.29765 -0.342746,-0.39687 0.01353,-0.11274 -0.02706,-0.21647 -0.07216,-0.32019 -0.144314,-0.60883 0.103726,-1.22217 0.0451,-1.8355 -0.02706,-0.44197 -0.198433,-0.85236 -0.383336,-1.24471 -0.07667,-0.18942 -0.184903,-0.38334 -0.162353,-0.5953 0.117255,-0.14883 0.333727,-0.0677 0.487061,-0.14883 0.25255,-0.0992 0.559218,-0.27059 0.559218,-0.57725 0.0451,0.0271 0.08569,0.0541 0.126276,0.0767 0.04059,-0.0721 0.07216,-0.14431 0.108235,-0.22098 z" />
        <path
           inkscape:connector-curvature="0"
           style="clip-rule:evenodd;fill:#020200;fill-rule:evenodd;stroke:#020200;stroke-width:0.00422796;image-rendering:optimizeQuality;shape-rendering:geometricPrecision;text-rendering:geometricPrecision"
           id="path44"
           d="m 33.561288,259.45805 c 0.04059,-0.14882 0.139805,-0.2751 0.27059,-0.34726 0,0.0316 -0.0045,0.0902 -0.0045,0.12177 -0.02706,0.009 -0.07667,0.0316 -0.103726,0.0406 -0.0045,0.0992 -0.0451,0.18039 -0.162354,0.1849 z" />
        <path
           inkscape:connector-curvature="0"
           style="clip-rule:evenodd;fill:#010101;fill-rule:evenodd;stroke:#010101;stroke-width:0.00422796;image-rendering:optimizeQuality;shape-rendering:geometricPrecision;text-rendering:geometricPrecision"
           id="path46"
           d="m 33.462072,259.46707 c 0.08569,-0.0406 0.121765,0.0767 0.180393,0.12177 -0.135295,0.009 -0.26608,0 -0.396865,-0.0316 0.05412,-0.0631 0.139805,-0.0722 0.216472,-0.0902 z" />
        <path
           inkscape:connector-curvature="0"
           style="clip-rule:evenodd;fill:#f1c63c;fill-rule:evenodd;stroke:#f1c63c;stroke-width:0.00422796;image-rendering:optimizeQuality;shape-rendering:geometricPrecision;text-rendering:geometricPrecision"
           id="path48"
           d="m 36.88503,259.90001 c 0.08118,-0.0316 0.162354,-0.0722 0.252551,-0.0812 0.171373,0.0225 0.342747,0.13078 0.392355,0.30216 0.06765,-0.0676 0.112745,-0.15334 0.117255,-0.25255 0.189413,0.0541 0.387845,-0.0541 0.577258,0.0271 0.02706,0.10373 -0.108236,0.12177 -0.166864,0.17589 0.07667,0.0541 0.162354,0.0857 0.257061,0.0992 -0.03608,-0.0316 -0.07216,-0.0676 -0.112746,-0.0992 0.279609,-0.2751 0.77569,0.0271 0.735102,0.39235 -0.01804,0.0631 -0.01804,0.1804 -0.112746,0.1353 -0.04059,-0.12177 -0.03157,-0.25255 -0.06314,-0.37883 -0.08569,-0.0541 -0.171373,-0.10823 -0.266079,-0.13529 -0.103726,0.0361 -0.157844,0.15333 -0.243531,0.21647 0.04059,0.0676 0.08118,0.1398 0.121765,0.20745 0.112746,-0.0496 0.216472,-0.13529 0.347257,-0.11725 -0.0045,0.0992 -0.07667,0.16235 -0.144314,0.22549 0.09471,0.0631 0.139804,0.16686 0.189412,0.26608 -0.360786,0.0857 -0.739611,0.0947 -1.104907,0.0406 0.139804,-0.17138 0.374315,-0.0992 0.550199,-0.0361 -0.0045,-0.0226 -0.01804,-0.0722 -0.02255,-0.0992 0.05412,0 0.108236,0 0.162354,-0.005 0,-0.018 0,-0.0541 0,-0.0767 -0.130785,0 -0.25706,0.005 -0.387845,0.009 -0.0451,-0.1398 -0.166864,-0.22549 -0.25706,-0.33372 0.144314,0.0361 0.27059,0.11274 0.410394,0.16686 -0.0451,-0.0676 -0.09471,-0.13079 -0.144314,-0.18941 0.02255,-0.0135 0.06765,-0.0406 0.0902,-0.0586 -0.06314,-0.0812 -0.126275,-0.15784 -0.193922,-0.23451 -0.135295,0.19843 -0.252551,0.40588 -0.405885,0.5953 -0.0451,0.0676 -0.126275,0.0857 -0.198432,0.10823 0.04059,-0.14431 0.06765,-0.29314 0.171373,-0.40588 0.0451,-0.0451 0.04961,-0.10824 0.06314,-0.16236 -0.121765,0.0902 -0.234511,0.1804 -0.360786,0.26157 0.03157,0.009 0.103726,0.018 0.139804,0.0226 -0.162353,0.0586 -0.288629,0.1804 -0.374315,0.33373 0.09471,0.005 0.189412,0.005 0.284119,0.018 0.121765,0.0135 0.234511,0.0857 0.360786,0.0631 0.108236,0.11725 0.202942,0.24804 0.279609,0.38784 0.166864,-0.11274 0.369806,-0.15784 0.572748,-0.14882 0.0045,0.0271 0.01804,0.0857 0.02706,0.11274 0.03157,-0.0451 0.06765,-0.0902 0.103726,-0.13529 -0.0045,-0.0316 -0.01804,-0.0947 -0.02706,-0.12177 0.04059,0.0496 0.08118,0.10824 0.121766,0.16236 0.121765,-0.10373 0.207452,-0.23451 0.25255,-0.39236 0.117255,-0.14882 0.135295,-0.34275 0.234511,-0.5051 0.0451,0.0451 0.0902,0.0947 0.135295,0.14432 -0.08118,0.18941 -0.0902,0.41941 0.02706,0.5998 0.07667,-0.10372 0.04961,-0.22549 0,-0.32922 0.08569,0.0361 0.130785,0.12177 0.162354,0.20746 -0.02255,0.0406 -0.04961,0.0812 -0.07216,0.12176 0.06765,0.0992 0.153334,0.17589 0.230001,0.27059 -0.06314,0.0406 -0.126275,0.0767 -0.189412,0.11275 0.009,-0.0451 0.01353,-0.0902 0.02255,-0.1353 -0.126275,-0.13078 -0.26157,-0.24804 -0.392355,-0.37431 -0.09471,0.11274 -0.184903,0.23 -0.26608,0.34725 0.112746,0.10824 0.180393,0.28863 0.356276,0.30216 -0.0902,-0.14431 -0.220981,-0.28412 -0.184902,-0.46902 0.07216,0.0812 0.117255,0.19392 0.225491,0.23 0.166863,0.0677 0.302158,0.20294 0.491571,0.19392 -0.03157,0.0812 -0.06314,0.16687 -0.08569,0.25255 -0.05412,0 -0.108236,0 -0.162353,0.005 -0.03157,0.13981 -0.06765,0.28412 -0.135295,0.41942 -0.08569,0.0586 -0.202942,0.0316 -0.288629,-0.0135 -0.09922,-0.0406 -0.09922,-0.17137 -0.135295,-0.25706 0.130785,0.0451 0.25255,0.11274 0.387845,0.15333 -0.112746,-0.0992 -0.234511,-0.23902 -0.401374,-0.20745 -0.01804,0.0361 -0.0451,0.10373 -0.06314,0.13981 -0.05412,-0.18942 -0.103726,-0.39236 -0.248041,-0.53667 -0.135294,-0.0135 -0.293138,-0.0225 -0.333727,-0.1804 -0.08118,0.0135 -0.157844,0.0271 -0.239021,0.0361 0.144315,0.0857 0.302159,0.16235 0.387846,0.30667 -0.302159,-0.0857 -0.608827,-0.21647 -0.80275,-0.48255 -0.05412,-0.0947 -0.171373,-0.11726 -0.266079,-0.16236 0.01353,0.0496 0.03157,0.10373 0.0451,0.15785 -0.05863,-0.005 -0.117256,-0.005 -0.175883,-0.005 0.01804,-0.0586 0.03608,-0.12177 0.04961,-0.18039 -0.243531,0.0812 -0.505101,0.0721 -0.753141,0.13078 0.02706,-0.0496 0.04961,-0.0992 0.07667,-0.14882 0.130785,0.0226 0.24804,-0.0451 0.320197,-0.15334 -0.0902,0.0316 -0.180393,0.0767 -0.266079,0.11275 0.07216,-0.10824 0.189412,-0.20745 0.157843,-0.35628 -0.121765,0.0361 -0.166863,0.16235 -0.24804,0.24804 -0.126275,0.0677 -0.26157,0.12628 -0.405884,0.0767 0.07216,-0.0722 0.135294,-0.15785 0.202942,-0.23 0.121765,-0.0496 0.25706,-0.0902 0.306668,-0.23 -0.166864,-0.0677 -0.347257,0.018 -0.410394,0.18039 -0.04961,-0.0135 -0.09922,-0.0316 -0.148825,-0.0451 0.02706,0.0586 0.05412,0.11275 0.08118,0.16686 -0.06765,-0.0406 -0.230001,-0.11725 -0.139804,-0.20745 0.121765,-0.11274 0.275099,-0.18941 0.414904,-0.2751 0.08569,-0.005 0.166863,0.005 0.25255,0.009 0.06765,-0.11274 0.121765,-0.25255 0.25255,-0.30667 z" />
        <path
           inkscape:connector-curvature="0"
           style="clip-rule:evenodd;fill:#010000;fill-rule:evenodd;stroke:#010000;stroke-width:0.00422796;image-rendering:optimizeQuality;shape-rendering:geometricPrecision;text-rendering:geometricPrecision"
           id="path50"
           d="m 36.772285,260.25178 c 0.08569,-0.13078 0.202942,-0.26608 0.374315,-0.26608 0.130785,-0.0135 0.230002,0.0902 0.306669,0.18039 -0.08569,0.0271 -0.166864,0.0496 -0.248041,0.0722 0.01804,-0.0316 0.04961,-0.0947 0.06314,-0.12627 -0.139805,0.11274 -0.329218,0.11274 -0.496081,0.1398 z" />
        <path
           inkscape:connector-curvature="0"
           style="clip-rule:evenodd;fill:#010101;fill-rule:evenodd;stroke:#010101;stroke-width:0.00422796;image-rendering:optimizeQuality;shape-rendering:geometricPrecision;text-rendering:geometricPrecision"
           id="path52"
           d="m 42.035253,260.38708 c 0.01353,-0.12177 0.06314,-0.24804 0.162354,-0.32471 -0.009,0.12627 -0.09922,0.23902 -0.07667,0.3698 0.03157,0.0677 0.07667,0.13079 0.112745,0.19844 -0.0902,-0.0496 -0.198432,-0.12628 -0.198432,-0.24353 z" />
        <path
           inkscape:connector-curvature="0"
           style="clip-rule:evenodd;fill:#020100;fill-rule:evenodd;stroke:#020100;stroke-width:0.00422796;image-rendering:optimizeQuality;shape-rendering:geometricPrecision;text-rendering:geometricPrecision"
           id="path54"
           d="m 36.691108,260.4457 c 0.02255,-0.0541 0.04961,-0.10372 0.07667,-0.15784 0.0902,0.0586 0.193922,0.0992 0.288629,0.15333 0.02255,0.0992 -0.04961,0.16687 -0.126275,0.21648 -0.06314,-0.0902 -0.148825,-0.15785 -0.239021,-0.21197 z" />
        <path
           inkscape:connector-curvature="0"
           style="clip-rule:evenodd;fill:#f1c63c;fill-rule:evenodd;stroke:#f1c63c;stroke-width:0.00422796;image-rendering:optimizeQuality;shape-rendering:geometricPrecision;text-rendering:geometricPrecision"
           id="path56"
           d="m 35.784633,260.66218 c 0.03608,0 0.112745,0.005 0.148824,0.005 -0.02255,0.13529 -0.06314,0.27509 -0.02255,0.41039 0.166863,0.0541 0.342747,0.10373 0.482551,0.21196 0.06765,-0.20294 0.320198,-0.16686 0.491571,-0.16235 0.0045,0.0361 0.0045,0.0722 0.009,0.10823 0.06314,0.0316 0.121765,0.0677 0.175883,0.11275 -0.171373,0.0586 -0.369805,0.0586 -0.536669,0.1398 -0.009,0.018 -0.02706,0.0541 -0.04059,0.0722 0.148825,-0.0316 0.297649,-0.0812 0.450983,-0.0992 -0.009,0.0225 -0.03157,0.0631 -0.04059,0.0812 -0.175884,0.0271 -0.369806,0.0902 -0.52765,-0.018 0,0.0271 0,0.0902 -0.0045,0.12177 -0.03608,0.0225 -0.07667,0.0451 -0.112746,0.0721 0,0.11275 -0.0045,0.2255 -0.01353,0.33824 -0.148824,-0.0767 -0.284119,-0.17137 -0.437453,-0.24353 0.04961,0.0767 0.06765,0.17137 0.135295,0.23 0.09922,0.0406 0.211961,0.0541 0.315687,0.0812 -0.09922,0.0541 -0.207452,0.0947 -0.311178,0.1398 -0.121765,-0.26157 -0.297648,-0.49157 -0.482551,-0.70804 0.02706,-0.0496 0.05863,-0.0947 0.0902,-0.1398 -0.03157,-0.018 -0.0902,-0.0541 -0.121765,-0.0722 0.02255,-0.16235 0.103726,-0.30216 0.225491,-0.41039 0.04059,0.0451 0.08569,0.0902 0.126276,0.13529 -0.0045,-0.13529 -0.0045,-0.27059 0,-0.40588 z" />
        <path
           inkscape:connector-curvature="0"
           style="clip-rule:evenodd;fill:#f1c63c;fill-rule:evenodd;stroke:#f1c63c;stroke-width:0.00422796;image-rendering:optimizeQuality;shape-rendering:geometricPrecision;text-rendering:geometricPrecision"
           id="path58"
           d="m 33.286188,260.6712 c 0.180394,0.0135 0.329218,0.16686 0.518631,0.14431 0.401374,-0.009 0.807259,-0.0316 1.208633,0 0.126275,0.0135 0.26608,0.018 0.360786,0.11275 -0.07667,0.0992 -0.216471,0.10372 -0.329217,0.0631 -0.198432,-0.0722 -0.410394,-0.0631 -0.622356,-0.0586 0.04961,0.0406 0.09922,0.0767 0.144314,0.11274 -0.202942,0.13079 -0.460002,0.0271 -0.662944,0.16235 -0.184903,0.10373 -0.460003,0.0722 -0.568238,0.28412 -0.07216,0.0902 -0.07667,0.20295 -0.09922,0.31118 -0.05863,-0.17137 -0.09922,-0.35176 -0.166863,-0.51863 -0.175883,0.0271 -0.351767,0.0406 -0.51863,0.0992 -0.0902,0.0271 -0.112746,0.12627 -0.153334,0.19843 -0.135295,0 -0.27059,0 -0.405885,-0.009 0.06314,-0.0812 0.126275,-0.15784 0.189413,-0.24353 -0.189413,-0.009 -0.26157,0.16686 -0.347257,0.29765 0.01804,0.0135 0.06314,0.0451 0.08569,0.0631 -0.009,0.10372 -0.01353,0.21196 -0.02255,0.31568 0.112745,-0.0812 0.230001,-0.018 0.333727,0.0451 0.103726,-0.0947 0.225491,-0.1849 0.378825,-0.1849 -0.0045,0.15333 -0.157844,0.21196 -0.25255,0.29765 0.144315,-0.0226 0.2751,-0.10824 0.428434,-0.10824 -0.0902,0.14432 -0.234511,0.23451 -0.383336,0.30216 -0.01353,-0.0316 -0.04059,-0.0947 -0.05412,-0.12627 -0.130785,0.0676 -0.25706,0.1398 -0.387845,0.21647 -0.04059,-0.0496 -0.08569,-0.0947 -0.126275,-0.14432 0.135295,-0.0631 0.311178,-0.0812 0.410394,-0.21196 -0.121765,0.005 -0.216471,0.0857 -0.329217,0.11275 -0.09922,-0.0406 -0.207452,-0.0586 -0.320198,-0.0451 0.05412,0.0406 0.112746,0.0812 0.166864,0.12176 -0.0451,0.0631 -0.09471,0.12628 -0.144315,0.18491 -0.103726,-0.0631 -0.180393,-0.17589 -0.148824,-0.30216 0.07667,-0.0902 0.162354,-0.17138 0.220982,-0.2751 -0.193923,-0.0496 -0.293139,0.16686 -0.482552,0.1398 0.01353,-0.13529 0.09471,-0.24353 0.166864,-0.35176 0.08118,0.0451 0.162354,0.0947 0.24353,0.14431 -0.04059,-0.0812 -0.0902,-0.15784 -0.139804,-0.23 0.09922,-0.0947 0.216472,-0.16235 0.351766,-0.19843 0.135295,-0.0271 0.157844,-0.19393 0.26608,-0.25706 0.09471,-0.005 0.189413,0.009 0.288629,0.0225 -0.03157,0.0947 -0.09471,0.17137 -0.157844,0.24353 0.230001,0.018 0.302159,-0.22098 0.460002,-0.33373 0.08569,0.0135 0.144315,0.0992 0.211962,0.14431 0.06314,-0.0271 0.121766,-0.0586 0.184903,-0.0857 0.06765,0.0496 0.126275,0.14882 0.225492,0.12627 0.207452,-0.0361 0.405884,-0.10823 0.604316,-0.17137 -0.166863,-0.19843 -0.5051,-0.15333 -0.626866,-0.41039 z" />
        <path
           inkscape:connector-curvature="0"
           style="clip-rule:evenodd;fill:#010000;fill-rule:evenodd;stroke:#010000;stroke-width:0.00422796;image-rendering:optimizeQuality;shape-rendering:geometricPrecision;text-rendering:geometricPrecision"
           id="path60"
           d="m 33.858937,260.93277 c 0.153334,0.005 0.315687,-0.005 0.469022,0.0451 -0.108236,0.0812 -0.243531,0.0947 -0.374316,0.12628 -0.03157,-0.0586 -0.06314,-0.11275 -0.09471,-0.17137 z" />
        <path
           inkscape:connector-curvature="0"
           style="clip-rule:evenodd;fill:#f1c63c;fill-rule:evenodd;stroke:#f1c63c;stroke-width:0.00422796;image-rendering:optimizeQuality;shape-rendering:geometricPrecision;text-rendering:geometricPrecision"
           id="path62"
           d="m 34.661686,261.06806 c 0.112745,-0.0722 0.25255,-0.0586 0.378825,-0.0586 -0.108236,0.13981 -0.234511,0.2751 -0.396865,0.35177 -0.270589,0.0767 -0.496081,0.24804 -0.76216,0.32922 0.220981,-0.25255 0.5051,-0.43746 0.7802,-0.62236 z" />
        <path
           inkscape:connector-curvature="0"
           style="clip-rule:evenodd;fill:#d3a231;fill-rule:evenodd;stroke:#d3a231;stroke-width:0.00422796;image-rendering:optimizeQuality;shape-rendering:geometricPrecision;text-rendering:geometricPrecision"
           id="path64"
           d="m 37.836604,261.03649 c 0.03608,-0.0406 0.144314,-0.0677 0.157844,0.009 -0.01353,0.0812 -0.220982,0.0992 -0.157844,-0.009 z" />
        <path
           inkscape:connector-curvature="0"
           style="clip-rule:evenodd;fill:#f1c53c;fill-rule:evenodd;stroke:#f1c53c;stroke-width:0.00422796;image-rendering:optimizeQuality;shape-rendering:geometricPrecision;text-rendering:geometricPrecision"
           id="path66"
           d="m 37.038365,261.52355 c 0.09471,-0.16686 0.207452,-0.3202 0.360786,-0.43294 0.02706,0.0496 0.05412,0.10372 0.08118,0.15333 -0.180393,0.0361 -0.297649,0.17589 -0.441963,0.27961 z" />
        <path
           inkscape:connector-curvature="0"
           style="clip-rule:evenodd;fill:#f1c63c;fill-rule:evenodd;stroke:#f1c63c;stroke-width:0.00422796;image-rendering:optimizeQuality;shape-rendering:geometricPrecision;text-rendering:geometricPrecision"
           id="path68"
           d="m 34.760902,261.61375 c 0.117255,-0.19392 0.302158,-0.36079 0.532159,-0.38785 0.03608,0.18942 0.0451,0.40138 0.180394,0.55471 -0.252551,0.0767 -0.482552,0.20294 -0.712553,0.32471 -0.09922,0.0451 0.03608,0.14431 0.009,0.22098 -0.112746,0.30667 -0.27961,0.58628 -0.378826,0.89746 -0.02255,0.0812 -0.07667,0.1398 -0.126275,0.20294 -0.05863,-0.0225 -0.117256,-0.0451 -0.175883,-0.0631 0.04059,0.0767 0.0902,0.15334 0.162353,0.21196 -0.01804,0.005 -0.05412,0.009 -0.06765,0.0135 -0.04961,-0.0676 -0.09922,-0.12627 -0.153334,-0.18941 0.117255,-0.15333 0.225491,-0.3202 0.311178,-0.49608 0.0451,-0.19392 0.126275,-0.37883 0.198432,-0.56373 0.0451,-0.25255 0.112746,-0.50059 0.220982,-0.72608 z" />
        <path
           inkscape:connector-curvature="0"
           style="clip-rule:evenodd;fill:#000000;fill-rule:evenodd;stroke:#000000;stroke-width:0.00422796;image-rendering:optimizeQuality;shape-rendering:geometricPrecision;text-rendering:geometricPrecision"
           id="path70"
           d="m 35.667377,261.25296 c 0.02706,0 0.08118,0 0.108236,0 0.08118,0.13981 0.180393,0.27059 0.202942,0.43746 -0.112745,-0.0992 -0.24353,-0.17138 -0.396865,-0.1353 0.02706,-0.0992 0.05863,-0.20294 0.08569,-0.30216 z" />
        <path
           inkscape:connector-curvature="0"
           style="clip-rule:evenodd;fill:#f1c63c;fill-rule:evenodd;stroke:#f1c63c;stroke-width:0.00422796;image-rendering:optimizeQuality;shape-rendering:geometricPrecision;text-rendering:geometricPrecision"
           id="path72"
           d="m 39.694653,261.30257 c 0.189412,-0.1398 0.410394,-0.005 0.541179,0.14432 0.06765,0.12176 0.162354,0.23902 0.162354,0.38333 0.02706,0.27059 0.175883,0.53216 0.135294,0.80726 0.01353,-0.009 0.04961,-0.0225 0.06765,-0.0271 -0.009,0.0631 -0.03608,0.13079 -0.02255,0.19843 0.0451,0.0947 0.135295,0.17589 0.144314,0.28412 0.01804,0.11275 0,0.22098 -0.01804,0.33373 -0.234511,-0.0676 -0.2751,-0.33824 -0.302159,-0.54118 -0.06765,-0.22549 -0.139804,-0.44647 -0.24353,-0.65843 -0.03157,-0.0992 0,-0.21197 -0.05412,-0.30216 -0.108236,-0.005 -0.220982,0.009 -0.329217,0.0271 -0.02706,-0.0316 -0.05863,-0.0677 -0.0902,-0.0992 0.09471,-0.16686 0.139805,-0.38785 0.009,-0.5502 z" />
        <path
           inkscape:connector-curvature="0"
           style="clip-rule:evenodd;fill:#020200;fill-rule:evenodd;stroke:#020200;stroke-width:0.00422796;image-rendering:optimizeQuality;shape-rendering:geometricPrecision;text-rendering:geometricPrecision"
           id="path74"
           d="m 35.924437,261.28453 c 0.117256,0.0586 0.239021,0.10373 0.374316,0.11275 -0.05412,0.13078 -0.139805,0.24804 -0.239021,0.35176 0.009,-0.0767 0.02255,-0.15333 0.03608,-0.23 -0.06314,-0.0767 -0.121766,-0.15333 -0.171375,-0.23451 z" />
        <path
           inkscape:connector-curvature="0"
           style="clip-rule:evenodd;fill:#020200;fill-rule:evenodd;stroke:#020200;stroke-width:0.00422796;image-rendering:optimizeQuality;shape-rendering:geometricPrecision;text-rendering:geometricPrecision"
           id="path76"
           d="m 36.406989,261.38826 c 0.0902,-0.0586 0.193922,-0.0902 0.302158,-0.0947 -0.08569,0.0767 -0.193922,0.0947 -0.302158,0.0947 z" />
        <path
           inkscape:connector-curvature="0"
           style="clip-rule:evenodd;fill:#020200;fill-rule:evenodd;stroke:#020200;stroke-width:0.00422796;image-rendering:optimizeQuality;shape-rendering:geometricPrecision;text-rendering:geometricPrecision"
           id="path78"
           d="m 38.589745,261.28002 c 0.166864,0.10373 0.297649,0.27059 0.351767,0.46902 -0.0902,-0.009 -0.103726,-0.10823 -0.144315,-0.17137 -0.05863,-0.10824 -0.144314,-0.19392 -0.207452,-0.29765 z" />
        <path
           inkscape:connector-curvature="0"
           style="clip-rule:evenodd;fill:#f1c63c;fill-rule:evenodd;stroke:#f1c63c;stroke-width:0.00422796;image-rendering:optimizeQuality;shape-rendering:geometricPrecision;text-rendering:geometricPrecision"
           id="path80"
           d="m 32.524028,261.69493 c 0.07667,-0.18491 0.25706,-0.32922 0.469022,-0.28863 0.0045,0.0812 0.01353,0.16235 0.02255,0.24353 -0.162354,0.0271 -0.324708,0.0857 -0.491571,0.0451 z" />
        <path
           inkscape:connector-curvature="0"
           style="clip-rule:evenodd;fill:#ffffff;fill-rule:evenodd;stroke:#ffcb99;stroke-width:0.00422796;image-rendering:optimizeQuality;shape-rendering:geometricPrecision;text-rendering:geometricPrecision"
           id="path82"
           d="m 36.587382,261.77159 c 0.306668,-0.15784 0.685494,-0.1398 0.965103,-0.36078 0.108236,0.0857 0.220981,0.17137 0.360786,0.18039 0.342747,0.0316 0.631376,0.2751 0.798239,0.56824 0.03157,0.28412 0,0.58177 -0.06765,0.86137 -0.184903,0.39236 -0.473532,0.72158 -0.717063,1.08236 -0.121765,0.0631 -0.234511,0.16687 -0.383335,0.16236 -0.162354,0.005 -0.315688,-0.0677 -0.464512,-0.13079 -0.05412,0.12177 -0.216472,0.12628 -0.275099,0.005 0.07216,-0.005 0.148824,-0.005 0.220981,-0.005 -0.117255,-0.20745 -0.279609,-0.37431 -0.423924,-0.55922 -0.03608,0.005 -0.108236,0.009 -0.144314,0.0135 0.04059,-0.0496 0.07667,-0.0947 0.117255,-0.14431 -0.06314,-0.0631 -0.130785,-0.12177 -0.198432,-0.18039 -0.02255,-0.26157 -0.02255,-0.52314 -0.01804,-0.7802 0.04961,-0.0226 0.09922,-0.0406 0.153334,-0.0496 -0.0045,0.1398 0.06765,0.25706 0.166863,0.34725 -0.02255,-0.0676 -0.0451,-0.13529 -0.06314,-0.20294 0.135295,-0.0361 0.175883,0.0947 0.239021,0.18039 0.09471,0.0541 0.202942,0.0812 0.293138,0.13981 0.05863,-0.0361 0.112746,-0.0767 0.166864,-0.12177 -0.05412,0.005 -0.157844,0.0135 -0.211962,0.0135 0.03608,-0.0812 0.148824,-0.17137 0.08569,-0.27059 -0.08118,-0.11274 -0.234511,-0.12627 -0.360786,-0.10823 -0.09471,0.005 -0.248041,0.0586 -0.26157,-0.0857 0.04961,0.009 0.09922,0.0135 0.148824,0.0226 0.06314,-0.0677 0.144314,-0.1398 0.243531,-0.12176 0.112745,0.0586 0.220981,0.13529 0.347256,0.15333 -0.06314,-0.25255 -0.360786,-0.24804 -0.568238,-0.20294 -0.171373,0.009 -0.270589,0.16235 -0.378825,0.2751 -0.0045,-0.14883 -0.0045,-0.29765 -0.0045,-0.44648 0.08118,-0.0767 0.157844,-0.15784 0.234511,-0.23451 z" />
        <path
           inkscape:connector-curvature="0"
           style="clip-rule:evenodd;fill:#020200;fill-rule:evenodd;stroke:#020200;stroke-width:0.00422796;image-rendering:optimizeQuality;shape-rendering:geometricPrecision;text-rendering:geometricPrecision"
           id="path84"
           d="m 39.085826,261.74453 c 0.03608,-0.11725 0.07667,-0.23451 0.126275,-0.34274 0.03608,0.0722 0.09471,0.14882 0.0902,0.23451 -0.04961,0.0722 -0.139805,0.0812 -0.216472,0.10823 z" />
        <path
           inkscape:connector-curvature="0"
           style="clip-rule:evenodd;fill:#f1c63c;fill-rule:evenodd;stroke:#f1c63c;stroke-width:0.00422796;image-rendering:optimizeQuality;shape-rendering:geometricPrecision;text-rendering:geometricPrecision"
           id="path86"
           d="m 32.036966,261.85728 c 0.03157,-0.18039 0.252551,-0.18941 0.383336,-0.26608 -0.02255,0.0992 0.0045,0.23451 -0.08569,0.30667 -0.09922,0.0225 -0.202942,-0.0226 -0.297649,-0.0406 z" />
        <path
           inkscape:connector-curvature="0"
           style="clip-rule:evenodd;fill:#f0c63c;fill-rule:evenodd;stroke:#f0c63c;stroke-width:0.00422796;image-rendering:optimizeQuality;shape-rendering:geometricPrecision;text-rendering:geometricPrecision"
           id="path88"
           d="m 32.763049,261.9565 c -0.01353,-0.1353 0.08118,-0.22099 0.184902,-0.28412 0.08569,0.0812 0.06765,0.18941 0.03608,0.28863 -0.07667,0 -0.148824,-0.005 -0.220981,-0.005 z" />
        <path
           inkscape:connector-curvature="0"
           style="clip-rule:evenodd;fill:#f1c63c;fill-rule:evenodd;stroke:#f1c63c;stroke-width:0.00422796;image-rendering:optimizeQuality;shape-rendering:geometricPrecision;text-rendering:geometricPrecision"
           id="path90"
           d="m 35.275022,262.06473 c 0.05412,-0.0902 0.139805,-0.15784 0.234511,-0.20294 0.04961,0.0902 0.09922,0.18039 0.153334,0.2751 -0.117255,-0.0767 -0.25706,-0.0812 -0.387845,-0.0722 z" />
        <path
           inkscape:connector-curvature="0"
           style="clip-rule:evenodd;fill:#f1c53c;fill-rule:evenodd;stroke:#f1c53c;stroke-width:0.00422796;image-rendering:optimizeQuality;shape-rendering:geometricPrecision;text-rendering:geometricPrecision"
           id="path92"
           d="m 39.834457,262.0512 c 0.07667,-0.0135 0.157844,-0.018 0.234511,0 -0.02706,0.009 -0.08569,0.0316 -0.112745,0.0406 0.103726,0.18039 0.117255,0.39687 0.220981,0.58177 0.05863,0.11725 0.103726,0.24804 0.162354,0.36529 -0.03157,0.0271 -0.06765,0.0541 -0.09922,0.0857 -0.193923,-0.33373 -0.288629,-0.70804 -0.405885,-1.07334 z" />
        <path
           inkscape:connector-curvature="0"
           style="clip-rule:evenodd;fill:#f1c63c;fill-rule:evenodd;stroke:#f1c63c;stroke-width:0.00422796;image-rendering:optimizeQuality;shape-rendering:geometricPrecision;text-rendering:geometricPrecision"
           id="path94"
           d="m 30.999706,262.16395 c 0.144315,-0.0271 0.284119,-0.0677 0.423924,-0.10373 -0.03157,0.16687 -0.166864,0.27961 -0.329217,0.3202 -0.03157,-0.0722 -0.06314,-0.14431 -0.09471,-0.21647 z" />
        <path
           inkscape:connector-curvature="0"
           style="clip-rule:evenodd;fill:#f1c63c;fill-rule:evenodd;stroke:#f1c63c;stroke-width:0.00422796;image-rendering:optimizeQuality;shape-rendering:geometricPrecision;text-rendering:geometricPrecision"
           id="path96"
           d="m 34.954824,262.16395 c 0.02706,-0.009 0.0902,-0.0316 0.121766,-0.0406 -0.009,0.1398 0.009,0.29314 -0.06765,0.41941 -0.08118,0.15334 -0.139804,0.3202 -0.180393,0.49157 -0.07667,0.018 -0.157844,0.0361 -0.234511,0.0631 0.08118,-0.0992 0.07216,-0.22549 0.08569,-0.34274 0.135295,-0.17589 0.230001,-0.37432 0.275099,-0.59079 z" />
        <path
           inkscape:connector-curvature="0"
           style="clip-rule:evenodd;fill:#f1c63c;fill-rule:evenodd;stroke:#f1c63c;stroke-width:0.00422796;image-rendering:optimizeQuality;shape-rendering:geometricPrecision;text-rendering:geometricPrecision"
           id="path98"
           d="m 35.144237,262.40748 c 0.02255,-0.0992 0.01353,-0.25255 0.148824,-0.27059 0.07216,0.10372 -0.01353,0.22549 -0.03608,0.33373 -0.08569,0.19843 -0.117256,0.46 -0.315688,0.58627 0.06765,-0.21647 0.180393,-0.41941 0.202942,-0.64941 z" />
        <path
           inkscape:connector-curvature="0"
           style="clip-rule:evenodd;fill:#000000;fill-rule:evenodd;stroke:#000000;stroke-width:0.00422796;image-rendering:optimizeQuality;shape-rendering:geometricPrecision;text-rendering:geometricPrecision"
           id="path100"
           d="m 37.593073,262.4165 c 0.144315,-0.0947 0.27961,-0.23451 0.460003,-0.24804 0.108235,-0.005 0.216471,-0.018 0.320197,0.009 0.117256,0.13529 0.175884,0.3247 0.103726,0.49608 -0.05863,0.16686 -0.279609,0.23 -0.437453,0.15333 -0.03608,-0.0631 -0.05412,-0.13078 -0.08118,-0.19843 -0.04961,0.009 -0.230001,0.009 -0.148824,0.0947 0.05412,0.0631 0.112746,0.12627 0.157844,0.19843 -0.103726,-0.0271 -0.198432,-0.0812 -0.297649,-0.11726 0.103726,0.15785 0.126275,0.34726 0.09922,0.53216 -0.108236,-0.15333 -0.135295,-0.33372 -0.148825,-0.51412 0.009,-0.0722 -0.0451,-0.17137 0.01804,-0.22549 0.25706,-0.12627 0.554708,-0.0947 0.834318,-0.11725 -0.07667,-0.11275 -0.220982,-0.12177 -0.342747,-0.13079 -0.09922,0 -0.211962,-0.0361 -0.284119,0.0496 -0.06765,0.0451 -0.112746,0.1398 -0.198433,0.14882 -0.01353,-0.0316 -0.04059,-0.0992 -0.05412,-0.13078 z" />
        <path
           inkscape:connector-curvature="0"
           style="clip-rule:evenodd;fill:#f1c63c;fill-rule:evenodd;stroke:#f1c63c;stroke-width:0.00422796;image-rendering:optimizeQuality;shape-rendering:geometricPrecision;text-rendering:geometricPrecision"
           id="path102"
           d="m 35.288552,262.89003 c 0.02706,-0.24353 0.07216,-0.5051 0.225491,-0.71255 -0.0045,0.25255 -0.07216,0.50961 -0.225491,0.71255 z" />
        <path
           inkscape:connector-curvature="0"
           style="clip-rule:evenodd;fill:#f1c53c;fill-rule:evenodd;stroke:#f1c53c;stroke-width:0.00422796;image-rendering:optimizeQuality;shape-rendering:geometricPrecision;text-rendering:geometricPrecision"
           id="path104"
           d="m 39.397004,262.16395 c 0.157844,0.15784 0.216472,0.38333 0.239021,0.59529 -0.166864,-0.14882 -0.184903,-0.38784 -0.239021,-0.59529 z" />
        <path
           inkscape:connector-curvature="0"
           style="clip-rule:evenodd;fill:#f1c63c;fill-rule:evenodd;stroke:#f1c63c;stroke-width:0.00422796;image-rendering:optimizeQuality;shape-rendering:geometricPrecision;text-rendering:geometricPrecision"
           id="path106"
           d="m 39.667594,262.18199 c 0.144314,0.23902 0.193922,0.52765 0.351766,0.75314 -0.01353,0.0361 -0.02706,0.0676 -0.03608,0.10372 -0.05863,-0.018 -0.117256,-0.0361 -0.175884,-0.0496 0,-0.27961 -0.153334,-0.53216 -0.139804,-0.80726 z" />
        <path
           inkscape:connector-curvature="0"
           style="clip-rule:evenodd;fill:#f1c63c;fill-rule:evenodd;stroke:#f1c63c;stroke-width:0.00422796;image-rendering:optimizeQuality;shape-rendering:geometricPrecision;text-rendering:geometricPrecision"
           id="path108"
           d="m 35.559141,262.82689 c 0.02706,-0.20745 0.04059,-0.47353 0.225492,-0.60882 0.009,0.0902 0.05863,0.18941 -0.009,0.26608 -0.08118,0.10823 -0.153334,0.22549 -0.216472,0.34274 z" />
        <path
           inkscape:connector-curvature="0"
           style="clip-rule:evenodd;fill:#f1c63c;fill-rule:evenodd;stroke:#f1c63c;stroke-width:0.00422796;image-rendering:optimizeQuality;shape-rendering:geometricPrecision;text-rendering:geometricPrecision"
           id="path110"
           d="m 35.780123,262.71415 c 0.02706,-0.16236 0.112745,-0.41942 0.324707,-0.35628 -0.09922,0.17137 -0.225491,0.3202 -0.351766,0.46451 -0.02255,-0.0361 -0.04059,-0.0722 -0.05863,-0.10823 0.01804,0 0.06314,0 0.08569,0 z" />
        <path
           inkscape:connector-curvature="0"
           style="clip-rule:evenodd;fill:#f1c53c;fill-rule:evenodd;stroke:#f1c53c;stroke-width:0.00422796;image-rendering:optimizeQuality;shape-rendering:geometricPrecision;text-rendering:geometricPrecision"
           id="path112"
           d="m 39.23014,262.31277 c 0.0451,0.0586 0.08569,0.11726 0.126276,0.17589 -0.06314,0.0451 -0.121766,0.0902 -0.184903,0.13078 0.02255,0.0361 0.04961,0.0767 0.07667,0.11275 0.04961,-0.0226 0.09922,-0.0361 0.148824,-0.0541 0.0045,0.0271 0.01353,0.0767 0.01804,0.10372 -0.08569,-0.0135 -0.171373,-0.018 -0.25706,-0.0406 -0.05412,-0.0677 -0.0902,-0.14432 -0.130785,-0.21648 -0.05863,0.0316 -0.112745,0.0631 -0.171373,0.0902 0.05863,-0.10373 0.139804,-0.19392 0.225491,-0.2751 0.03608,0.0677 0.06765,0.14432 0.135295,0.19392 0.0045,-0.0722 0.009,-0.14882 0.01353,-0.22098 z" />
        <path
           inkscape:connector-curvature="0"
           style="clip-rule:evenodd;fill:#f1c63c;fill-rule:evenodd;stroke:#f1c63c;stroke-width:0.00422796;image-rendering:optimizeQuality;shape-rendering:geometricPrecision;text-rendering:geometricPrecision"
           id="path114"
           d="m 36.023653,262.58787 c 0.108236,0.0857 0.193923,0.19843 0.230002,0.33373 -0.139805,-0.0541 -0.193923,-0.19843 -0.230002,-0.33373 z" />
        <path
           inkscape:connector-curvature="0"
           style="clip-rule:evenodd;fill:#f4c392;fill-rule:evenodd;stroke:#f4c392;stroke-width:0.00422796;image-rendering:optimizeQuality;shape-rendering:geometricPrecision;text-rendering:geometricPrecision"
           id="path116"
           d="m 38.287587,262.66454 c 0.05412,-0.0767 0.157844,0.0135 0.07216,0.0722 -0.05412,0.0812 -0.153334,-0.018 -0.07216,-0.0722 z" />
        <path
           inkscape:connector-curvature="0"
           style="clip-rule:evenodd;fill:#ffffff;fill-rule:evenodd;stroke:#ffcb99;stroke-width:0.00422796;image-rendering:optimizeQuality;shape-rendering:geometricPrecision;text-rendering:geometricPrecision"
           id="path118"
           d="m 33.827368,262.84944 c 0.144314,-0.0586 0.275099,-0.14431 0.423923,-0.18039 -0.121765,0.21196 -0.157843,0.46451 -0.302158,0.66294 -0.103726,0.15334 0.08569,0.30216 0.234511,0.25706 0.01353,-0.005 0.04961,-0.009 0.06765,-0.0135 0.184903,-0.14882 0.410395,-0.23 0.631376,-0.29764 0.108236,-0.0135 0.166864,-0.11275 0.26157,-0.14883 0.117256,-0.0451 0.239021,-0.0586 0.360786,-0.0631 0.121766,0.005 0.207452,-0.0947 0.315688,-0.13078 0.01353,0.14882 -0.0045,0.30667 0.0451,0.44647 0.153334,0.19843 0.25255,0.43294 0.324707,0.67197 -0.135295,-0.0135 -0.202942,-0.13079 -0.26157,-0.23903 0.009,0.10373 0.01353,0.20746 0.0045,0.31118 -0.0451,-0.009 -0.08569,-0.018 -0.130785,-0.0271 0.01353,0.0586 0.02706,0.11275 0.04059,0.16687 -0.135294,-0.0361 -0.266079,-0.0406 -0.369805,0.0631 -0.03608,-0.12176 -0.01353,-0.2796 -0.139805,-0.35627 0.0045,0.16686 0.06314,0.32922 0.05412,0.49608 -0.09922,-0.1353 -0.08118,-0.33824 -0.234511,-0.44196 0.0045,0.14431 0.05412,0.27961 0.103726,0.4149 -0.07667,0.0631 -0.148824,0.12628 -0.230001,0.1849 -0.05863,-0.10372 -0.108236,-0.21196 -0.162354,-0.31568 0,0.15333 0.03608,0.3247 -0.06765,0.45549 -0.03157,-0.11275 -0.05863,-0.22549 -0.103726,-0.32922 -0.009,0.11726 -0.01353,0.23902 -0.02706,0.36079 -0.02706,-0.0361 -0.05412,-0.0767 -0.08118,-0.11726 -0.0045,0.11275 -0.07216,0.1849 -0.189413,0.13981 0.03157,0.0541 0.06314,0.10823 0.09471,0.16235 -0.126275,-0.0361 -0.26157,-0.0451 -0.392355,-0.0451 0.009,-0.16235 -0.01353,-0.32471 -0.103726,-0.45549 0.0045,0.17588 0.04961,0.35177 0.009,0.52765 -0.0902,-0.005 -0.180393,-0.0135 -0.26608,-0.0226 -0.02706,-0.11275 -0.04961,-0.22098 -0.0902,-0.32471 -0.01804,0.14883 0.04059,0.32922 -0.0902,0.43746 -0.0045,-0.0767 -0.01353,-0.15785 -0.02255,-0.23452 -0.06765,0.0361 -0.08569,0.11275 -0.112746,0.1804 -0.03157,-0.0677 -0.06314,-0.1353 -0.09922,-0.20294 0.009,0.13529 -0.02255,0.27058 -0.112746,0.37431 -0.05412,-0.0631 -0.103726,-0.12627 -0.148824,-0.18941 -0.01804,0.1849 -0.189413,0.28863 -0.25255,0.45098 0.04059,0.0722 0.0902,0.13981 0.130785,0.21196 0.302158,-0.0226 0.626866,-0.009 0.901965,-0.15333 0.198433,0.23902 0.550199,0.17137 0.802749,0.32471 0.202943,0.1849 0.423924,0.34725 0.680984,0.44647 0.103726,0.0947 0.193923,0.19392 0.297649,0.28863 0.04059,-0.0225 0.08569,-0.0451 0.126275,-0.0677 0.121765,0.13079 0.306668,0.14431 0.464512,0.19392 0.108236,0.0902 0.26608,0.0451 0.374316,0.13079 0.139804,0.0947 0.315688,0.0586 0.469022,0.0361 0.117255,0.018 0.230001,0.0496 0.342747,0.0812 0.06765,0.0451 0.103726,0.12177 0.153334,0.18491 -0.0451,0.10823 -0.08118,0.22098 -0.153334,0.31117 0.03608,0.0677 0.06765,0.14432 0.04961,0.22099 -0.06314,-0.0226 -0.121766,-0.0496 -0.180393,-0.0767 0.01353,0.0722 0.03157,0.1398 0.05412,0.20745 0.01804,-0.0226 0.06314,-0.0586 0.08569,-0.0767 0.04961,0.0812 -0.0045,0.17589 0,0.26608 0.01353,0.0631 0.08118,0.0992 0.121766,0.14432 -0.0045,0.14882 -0.0045,0.30216 -0.05863,0.44196 0.03157,0 0.09922,0 0.135295,0 0,0.13079 0,0.26157 0,0.39236 -0.02255,0 -0.06314,-0.009 -0.08569,-0.0135 -0.0451,0.23 -0.171373,0.43294 -0.25255,0.65392 -0.02706,0.0767 -0.09471,0.13079 -0.153334,0.18941 0.009,-0.25706 0.03608,-0.51412 -0.01353,-0.76667 -0.04961,-0.14882 -0.139805,-0.27961 -0.220981,-0.4149 -0.09922,-0.17588 -0.135295,-0.4149 -0.338237,-0.5051 0,-0.0271 0.009,-0.0812 0.009,-0.10824 -0.03608,0.009 -0.07667,0.0135 -0.112745,0.018 -0.03157,-0.0586 -0.05863,-0.12176 -0.08569,-0.18039 -0.216472,-0.0361 -0.387845,-0.18039 -0.599807,-0.22549 -0.126275,-0.0225 -0.207452,-0.1849 -0.351767,-0.13981 -0.03157,-0.0361 -0.05863,-0.0947 -0.121765,-0.0902 -0.24804,-0.0316 -0.51412,-0.0225 -0.748631,-0.12177 -0.05863,-0.0226 -0.0902,-0.0812 -0.135295,-0.12627 -0.04059,0.0541 -0.07667,0.10823 -0.112746,0.16235 -0.08118,-0.0676 -0.166863,-0.12628 -0.239021,-0.20294 -0.02255,0.0271 -0.04059,0.0541 -0.05863,0.0812 -0.06314,-0.0451 -0.121766,-0.0947 -0.189413,-0.12627 -0.07667,-0.018 -0.148824,0.0271 -0.220982,0.0451 -0.103726,-0.10373 -0.225491,-0.18941 -0.360786,-0.24353 -0.07216,0 -0.121765,0.0631 -0.180393,0.0947 0.01804,-0.0496 0.03608,-0.0992 0.05412,-0.14882 -0.284119,0.0496 -0.51863,-0.15784 -0.78922,-0.17588 -0.148824,-0.0135 -0.293138,-0.018 -0.432943,-0.0676 -0.198432,-0.0767 -0.432943,-0.0361 -0.613336,-0.16236 -0.202943,-0.23902 -0.288629,-0.59529 -0.171374,-0.89294 0.01353,-0.17588 0.243531,-0.22098 0.26157,-0.39236 0.166864,-0.0721 0.311178,-0.19392 0.419414,-0.33823 0.05412,-0.0631 0.0451,-0.15334 0.0902,-0.22098 0.09922,-0.0722 0.257061,-0.0631 0.311179,-0.18942 0.07216,-0.19843 0.284119,-0.28412 0.401374,-0.45098 0.144315,-0.25706 0.469022,-0.34726 0.586278,-0.62687 0.153334,-0.0225 0.25706,-0.13529 0.266079,-0.28862 0.166864,0.0902 0.302159,-0.0541 0.410395,-0.16236 z" />
        <path
           inkscape:connector-curvature="0"
           style="clip-rule:evenodd;fill:#e8bb39;fill-rule:evenodd;stroke:#e8bb39;stroke-width:0.00422796;image-rendering:optimizeQuality;shape-rendering:geometricPrecision;text-rendering:geometricPrecision"
           id="path120"
           d="m 38.779158,262.91709 c 0.06314,-0.0902 0.157844,-0.14432 0.270589,-0.14883 0.009,0.16236 -0.148824,0.16236 -0.270589,0.14883 z" />
        <path
           inkscape:connector-curvature="0"
           style="clip-rule:evenodd;fill:#f0c63c;fill-rule:evenodd;stroke:#f0c63c;stroke-width:0.00422796;image-rendering:optimizeQuality;shape-rendering:geometricPrecision;text-rendering:geometricPrecision"
           id="path122"
           d="m 35.965026,262.80434 c 0.108236,0.0992 0.234511,0.1804 0.324707,0.29314 0.009,0.11275 -0.108236,0.14432 -0.180393,0.19843 0.112746,0.0812 0.284119,0.10824 0.338237,0.24804 -0.03157,0.0451 -0.06314,0.0812 -0.09471,0.12177 0.207452,0.0496 0.351766,0.22098 0.500591,0.3653 -0.112746,0.0135 -0.230002,0.0225 -0.347257,0.009 0.04961,-0.0406 0.09922,-0.0812 0.148824,-0.12628 -0.135295,-0.0631 -0.311178,-0.0722 -0.414904,-0.19392 0.009,-0.0451 0.02255,-0.0902 0.03157,-0.13079 -0.08569,-0.0947 -0.180393,-0.1849 -0.279609,-0.27059 0.02255,-0.0631 0.0451,-0.12627 0.06314,-0.18941 -0.05863,-0.0992 -0.09471,-0.20745 -0.0902,-0.32471 z" />
        <path
           inkscape:connector-curvature="0"
           style="clip-rule:evenodd;fill:#f1c53c;fill-rule:evenodd;stroke:#f1c53c;stroke-width:0.00422796;image-rendering:optimizeQuality;shape-rendering:geometricPrecision;text-rendering:geometricPrecision"
           id="path124"
           d="m 38.670922,263.22376 c 0.112746,-0.13079 0.27059,-0.21196 0.432943,-0.26608 -0.06765,0.10372 -0.139804,0.20745 -0.198432,0.31569 -0.07667,-0.018 -0.157844,-0.0361 -0.234511,-0.0496 z" />
        <path
           inkscape:connector-curvature="0"
           style="clip-rule:evenodd;fill:#010101;fill-rule:evenodd;stroke:#010101;stroke-width:0.00422796;image-rendering:optimizeQuality;shape-rendering:geometricPrecision;text-rendering:geometricPrecision"
           id="path126"
           d="m 37.137581,263.12905 c 0.06765,0.0722 0.121765,0.16235 0.202942,0.22549 0.09922,0.0631 0.207452,-0.005 0.311178,-0.0225 -0.09471,0.0857 -0.220982,0.15334 -0.342747,0.0902 -0.130785,-0.0361 -0.171373,-0.17588 -0.171373,-0.29314 z" />
        <path
           inkscape:connector-curvature="0"
           style="clip-rule:evenodd;fill:#010101;fill-rule:evenodd;stroke:#010101;stroke-width:0.00422796;image-rendering:optimizeQuality;shape-rendering:geometricPrecision;text-rendering:geometricPrecision"
           id="path128"
           d="m 39.527789,263.17415 c 0.09922,0.009 0.175883,0.0722 0.230001,0.15333 -0.09922,-0.009 -0.189413,-0.0586 -0.230001,-0.15333 z" />
        <path
           inkscape:connector-curvature="0"
           style="clip-rule:evenodd;fill:#f1c63c;fill-rule:evenodd;stroke:#f1c63c;stroke-width:0.00422796;image-rendering:optimizeQuality;shape-rendering:geometricPrecision;text-rendering:geometricPrecision"
           id="path130"
           d="m 38.562686,263.40866 c 0.117256,-0.0496 0.248041,-0.0677 0.374316,-0.0857 -0.05863,0.0947 -0.130785,0.1804 -0.211962,0.25706 -0.06314,-0.0496 -0.180393,-0.0676 -0.162354,-0.17137 z" />
        <path
           inkscape:connector-curvature="0"
           style="clip-rule:evenodd;fill:#f1c63c;fill-rule:evenodd;stroke:#f1c63c;stroke-width:0.00422796;image-rendering:optimizeQuality;shape-rendering:geometricPrecision;text-rendering:geometricPrecision"
           id="path132"
           d="m 38.46347,263.59807 c 0.08569,-0.0226 0.26608,-0.005 0.24804,0.11726 -0.103726,0.0406 -0.293138,0.10372 -0.342746,-0.0361 0.02255,-0.0226 0.06765,-0.0631 0.09471,-0.0812 z" />
        <path
           inkscape:connector-curvature="0"
           style="clip-rule:evenodd;fill:#000000;fill-rule:evenodd;stroke:#000000;stroke-width:0.00422796;image-rendering:optimizeQuality;shape-rendering:geometricPrecision;text-rendering:geometricPrecision"
           id="path134"
           d="m 37.128561,263.69278 c 0.175883,-0.009 0.356276,-0.009 0.52765,0.009 -0.121765,0.19843 -0.369806,0.0767 -0.52765,-0.009 z" />
        <path
           inkscape:connector-curvature="0"
           style="clip-rule:evenodd;fill:#010101;fill-rule:evenodd;stroke:#010101;stroke-width:0.00422796;image-rendering:optimizeQuality;shape-rendering:geometricPrecision;text-rendering:geometricPrecision"
           id="path136"
           d="m 37.142091,263.85513 c 0.108235,0.0316 0.211961,0.0812 0.311178,0.13079 0.09471,-0.0451 0.193922,-0.0857 0.293138,-0.12177 -0.06314,0.1804 -0.284119,0.17589 -0.437453,0.14432 -0.08569,-0.0135 -0.121765,-0.0902 -0.166863,-0.15334 z" />
        <path
           inkscape:connector-curvature="0"
           style="clip-rule:evenodd;fill:#f1c63c;fill-rule:evenodd;stroke:#f1c63c;stroke-width:0.00422796;image-rendering:optimizeQuality;shape-rendering:geometricPrecision;text-rendering:geometricPrecision"
           id="path138"
           d="m 38.323665,264.09415 c -0.05412,-0.0676 -0.216471,-0.16235 -0.09922,-0.24804 0.108236,0.005 0.216472,0.0271 0.324708,0.0451 -0.07216,0.0722 -0.148825,0.13981 -0.225492,0.20294 z" />
        <path
           inkscape:connector-curvature="0"
           style="clip-rule:evenodd;fill:#a58463;fill-rule:evenodd;stroke:#a58463;stroke-width:0.00422796;image-rendering:optimizeQuality;shape-rendering:geometricPrecision;text-rendering:geometricPrecision"
           id="path140"
           d="m 41.34074,263.90925 c 0.02255,0 0.06765,-0.005 0.0902,-0.005 -0.0045,0.0586 -0.0045,0.11726 -0.0045,0.17588 -0.02255,0 -0.06314,0 -0.08569,-0.005 0,-0.0541 0,-0.10823 0,-0.16686 z" />
        <path
           inkscape:connector-curvature="0"
           style="clip-rule:evenodd;fill:#010101;fill-rule:evenodd;stroke:#010101;stroke-width:0.00422796;image-rendering:optimizeQuality;shape-rendering:geometricPrecision;text-rendering:geometricPrecision"
           id="path142"
           d="m 38.743079,264.14376 c 0.05412,-0.0902 0.148824,-0.14431 0.25706,-0.15784 -0.06765,0.0812 -0.153334,0.13529 -0.25706,0.15784 z" />
        <path
           inkscape:connector-curvature="0"
           style="clip-rule:evenodd;fill:#f1c63c;fill-rule:evenodd;stroke:#f1c63c;stroke-width:0.00422796;image-rendering:optimizeQuality;shape-rendering:geometricPrecision;text-rendering:geometricPrecision"
           id="path144"
           d="m 38.030526,264.10768 c 0.06765,-0.005 0.139805,-0.005 0.207453,0 -0.03157,0.0451 -0.06314,0.12177 -0.135295,0.0992 -0.02706,-0.0316 -0.04961,-0.0631 -0.07216,-0.0992 z" />
        <path
           inkscape:connector-curvature="0"
           style="clip-rule:evenodd;fill:#020200;fill-rule:evenodd;stroke:#020200;stroke-width:0.00422796;image-rendering:optimizeQuality;shape-rendering:geometricPrecision;text-rendering:geometricPrecision"
           id="path146"
           d="m 35.117178,264.54965 c -0.121765,-0.0451 -0.06765,-0.18491 -0.009,-0.25706 0.009,0.0857 0.01353,0.17137 0.009,0.25706 z" />
        <path
           inkscape:connector-curvature="0"
           style="clip-rule:evenodd;fill:#f1c63c;fill-rule:evenodd;stroke:#f1c63c;stroke-width:0.00422796;image-rendering:optimizeQuality;shape-rendering:geometricPrecision;text-rendering:geometricPrecision"
           id="path148"
           d="m 37.006796,264.3918 c 0.103726,-0.0451 0.216471,-0.0947 0.324707,-0.0541 -0.04961,0.0722 -0.09922,0.1353 -0.148824,0.20746 0.06765,-0.0271 0.130785,-0.0631 0.193923,-0.0992 0.126275,0.12177 0.25706,0.23902 0.365296,0.37883 -0.0902,0.0135 -0.189413,0.0271 -0.26157,-0.0406 -0.148825,-0.14432 -0.347257,-0.22549 -0.473532,-0.39236 z" />
        <path
           inkscape:connector-curvature="0"
           style="clip-rule:evenodd;fill:#f1c63c;fill-rule:evenodd;stroke:#f1c63c;stroke-width:0.00422796;image-rendering:optimizeQuality;shape-rendering:geometricPrecision;text-rendering:geometricPrecision"
           id="path150"
           d="m 37.444249,264.36474 c 0.139805,-0.018 0.284119,-0.0316 0.423924,-0.0316 0.108236,0.1353 0.157844,0.31569 0.139804,0.48707 -0.06314,-0.0135 -0.166863,0.0225 -0.189412,-0.0541 -0.02706,-0.0541 -0.04059,-0.11275 -0.05863,-0.17138 -0.112746,-0.0631 -0.220982,-0.1398 -0.315688,-0.23 z" />
        <path
           inkscape:connector-curvature="0"
           style="clip-rule:evenodd;fill:#010101;fill-rule:evenodd;stroke:#010101;stroke-width:0.00422796;image-rendering:optimizeQuality;shape-rendering:geometricPrecision;text-rendering:geometricPrecision"
           id="path152"
           d="m 39.297788,264.63533 c 0.07216,-0.0812 0.157844,-0.14882 0.25255,-0.19392 -0.05863,0.0902 -0.144314,0.16235 -0.25255,0.19392 z" />
        <path
           inkscape:connector-curvature="0"
           style="clip-rule:evenodd;fill:#f1c63c;fill-rule:evenodd;stroke:#f1c63c;stroke-width:0.00422796;image-rendering:optimizeQuality;shape-rendering:geometricPrecision;text-rendering:geometricPrecision"
           id="path154"
           d="m 36.89405,264.77965 c 0.06314,-0.0541 0.130785,-0.10824 0.202942,-0.15785 0.09922,0.0992 0.117256,0.30667 -0.03608,0.3653 -0.07667,-0.0541 -0.04059,-0.14882 -0.0451,-0.23 -0.03157,0.009 -0.0902,0.018 -0.121765,0.0226 z" />
        <path
           inkscape:connector-curvature="0"
           style="clip-rule:evenodd;fill:#f0c63c;fill-rule:evenodd;stroke:#f0c63c;stroke-width:0.00422796;image-rendering:optimizeQuality;shape-rendering:geometricPrecision;text-rendering:geometricPrecision"
           id="path156"
           d="m 37.602093,265.00965 c 0.06314,-0.0541 0.112746,-0.13981 0.202942,-0.15334 0.130785,0.13981 0.239021,0.29765 0.239021,0.49158 -0.08118,0.009 -0.162354,0.0135 -0.243531,0.0225 0.009,-0.0676 0.01353,-0.13078 0.01353,-0.19392 -0.04961,-0.0767 -0.139805,-0.11274 -0.211962,-0.16686 z" />
        <path
           inkscape:connector-curvature="0"
           style="clip-rule:evenodd;fill:#f1c63c;fill-rule:evenodd;stroke:#f1c63c;stroke-width:0.00422796;image-rendering:optimizeQuality;shape-rendering:geometricPrecision;text-rendering:geometricPrecision"
           id="path158"
           d="m 37.349543,264.92847 c 0.04961,-0.009 0.09922,-0.0135 0.148824,-0.0226 -0.009,0.17589 -0.03157,0.35177 -0.0451,0.52765 0.08569,0.0677 0.198432,0.11726 0.234511,0.22549 0.0451,0.11726 0.166863,0.17138 0.207452,0.28863 0.153334,0.30667 0.441963,0.57275 0.460002,0.92903 -0.02255,0.005 -0.05863,0.009 -0.07667,0.0135 -0.153334,-0.28863 -0.342747,-0.55922 -0.559219,-0.80275 -0.157844,-0.25255 -0.320197,-0.51863 -0.351766,-0.82079 -0.0451,-0.11275 -0.0902,-0.22549 -0.01804,-0.33824 z" />
        <path
           inkscape:connector-curvature="0"
           style="clip-rule:evenodd;fill:#f1c63c;fill-rule:evenodd;stroke:#f1c63c;stroke-width:0.00422796;image-rendering:optimizeQuality;shape-rendering:geometricPrecision;text-rendering:geometricPrecision"
           id="path160"
           d="m 37.092482,265.16298 c 0.07216,0.0496 0.157844,0.0992 0.180394,0.18942 -0.009,0.0541 -0.02255,0.10823 -0.0451,0.16235 -0.08118,-0.0992 -0.135295,-0.22098 -0.135294,-0.35177 z" />
        <path
           inkscape:connector-curvature="0"
           style="clip-rule:evenodd;fill:#f1c63c;fill-rule:evenodd;stroke:#f1c63c;stroke-width:0.00422796;image-rendering:optimizeQuality;shape-rendering:geometricPrecision;text-rendering:geometricPrecision"
           id="path162"
           d="m 37.602093,265.29377 c 0.108236,0.0631 0.184903,0.16235 0.225491,0.28412 -0.148824,-0.0135 -0.207452,-0.15334 -0.225491,-0.28412 z" />
        <path
           inkscape:connector-curvature="0"
           style="clip-rule:evenodd;fill:#f1c63c;fill-rule:evenodd;stroke:#f1c63c;stroke-width:0.00422796;image-rendering:optimizeQuality;shape-rendering:geometricPrecision;text-rendering:geometricPrecision"
           id="path164"
           d="m 37.913271,265.37494 c 0.144314,0.0361 0.157844,0.20746 0.24804,0.30216 0.126276,0.10824 0.26608,0.20295 0.414905,0.26608 0.05412,0.018 0.08569,0.0677 0.112745,0.11275 -0.175883,0.0226 -0.351766,-0.0361 -0.52314,-0.0677 -0.108236,-0.19392 -0.225491,-0.38784 -0.25255,-0.61334 z" />
        <path
           inkscape:connector-curvature="0"
           style="clip-rule:evenodd;fill:#f1c63c;fill-rule:evenodd;stroke:#f1c63c;stroke-width:0.00422796;image-rendering:optimizeQuality;shape-rendering:geometricPrecision;text-rendering:geometricPrecision"
           id="path166"
           d="m 37.133071,265.72671 c 0.130785,0.0135 0.275099,0.0135 0.365296,0.11726 -0.117256,0.0992 -0.284119,-0.009 -0.365296,-0.11726 z" />
        <path
           inkscape:connector-curvature="0"
           style="clip-rule:evenodd;fill:#f5ca00;fill-rule:evenodd;stroke:#f5ca00;stroke-width:0.00422796;image-rendering:optimizeQuality;shape-rendering:geometricPrecision;text-rendering:geometricPrecision"
           id="path168"
           d="m 37.137581,265.99279 c 0.153334,0.0361 0.311178,0.0451 0.464512,0.0767 -0.09471,0.0451 -0.193923,0.0812 -0.288629,0.11725 0.0045,0.0271 0.02255,0.0722 0.03157,0.0992 0.04961,0.0271 0.108236,0.0361 0.171373,0.0225 -0.112745,0.0496 -0.26157,0.0451 -0.288629,-0.10373 -0.02706,-0.0586 -0.05412,-0.11725 -0.07667,-0.18039 z" />
        <path
           inkscape:connector-curvature="0"
           style="clip-rule:evenodd;fill:#020200;fill-rule:evenodd;stroke:#020200;stroke-width:0.00422796;image-rendering:optimizeQuality;shape-rendering:geometricPrecision;text-rendering:geometricPrecision"
           id="path170"
           d="m 37.011306,266.04691 c 0.03608,-0.005 0.103726,-0.018 0.139804,-0.0226 0.02255,0.0631 0.04961,0.12177 0.07667,0.18039 -0.05863,-0.0271 -0.121765,-0.0541 -0.184903,-0.0812 -0.009,-0.018 -0.02255,-0.0586 -0.03157,-0.0767 z" />
        <path
           inkscape:connector-curvature="0"
           style="clip-rule:evenodd;fill:#f1c63c;fill-rule:evenodd;stroke:#f1c63c;stroke-width:0.00422796;image-rendering:optimizeQuality;shape-rendering:geometricPrecision;text-rendering:geometricPrecision"
           id="path172"
           d="m 38.174841,266.17769 c 0.180393,0.0992 0.306668,0.26608 0.487061,0.36079 0.148825,0.0677 0.26157,0.20745 0.428434,0.24804 0.09471,0.0406 0.193922,-0.005 0.288629,-0.0226 0.148824,0.10824 0.342747,0.0902 0.50961,0.14432 -0.009,0.0631 -0.02255,0.12627 -0.03157,0.19392 0.05412,-0.005 0.108236,-0.005 0.162354,-0.005 0.05412,0.0541 0.103726,0.10823 0.162354,0.16235 0.01353,-0.0361 0.04961,-0.10372 0.06765,-0.13529 0.130785,0.0631 0.257061,0.14431 0.369806,0.23902 -0.08118,0.005 -0.162354,0.009 -0.24353,0.0135 0.130785,0.15784 0.216471,0.36078 0.166863,0.56824 -0.09922,-0.0316 -0.193922,-0.0677 -0.288629,-0.0992 0.02706,0.0676 0.06314,0.13529 0.08569,0.20745 -0.02255,0.0451 -0.06765,0.0722 -0.103726,0.10373 -0.01353,-0.0316 -0.0451,-0.0947 -0.05863,-0.12628 -0.08569,0.0361 -0.175883,0.10824 -0.275099,0.0722 -0.03608,-0.0406 -0.06314,-0.0857 -0.09471,-0.13079 0.08118,0.009 0.162354,0.0226 0.243531,0.0361 -0.0045,-0.0496 -0.01353,-0.0947 -0.01804,-0.14431 0.148824,-0.0586 0.25706,-0.19843 0.423923,-0.20745 -0.06765,-0.0271 -0.135294,-0.0541 -0.202942,-0.0812 -0.009,-0.0586 -0.02255,-0.12177 -0.03157,-0.1849 -0.175883,-0.0226 -0.347256,-0.10824 -0.527649,-0.0767 0,-0.0677 0.0045,-0.13529 0.009,-0.20294 -0.135295,-0.0451 -0.26157,-0.11726 -0.320197,-0.25255 -0.180393,0.0857 -0.225492,0.31569 -0.401375,0.39686 -0.05863,-0.25255 -0.234511,-0.44647 -0.392355,-0.63588 -0.04059,0.0271 -0.08118,0.0541 -0.121765,0.0812 -0.02255,-0.20745 -0.193923,-0.34725 -0.293139,-0.52314 z" />
        <path
           inkscape:connector-curvature="0"
           style="clip-rule:evenodd;fill:#f1c63c;fill-rule:evenodd;stroke:#f1c63c;stroke-width:0.00422796;image-rendering:optimizeQuality;shape-rendering:geometricPrecision;text-rendering:geometricPrecision"
           id="path174"
           d="m 39.929164,266.8677 c 0.148824,-0.0271 0.25706,0.0857 0.302158,0.21196 -0.139805,0.005 -0.24804,-0.0857 -0.302158,-0.21196 z" />
        <path
           inkscape:connector-curvature="0"
           style="clip-rule:evenodd;fill:#f1c63c;fill-rule:evenodd;stroke:#f1c63c;stroke-width:0.00422796;image-rendering:optimizeQuality;shape-rendering:geometricPrecision;text-rendering:geometricPrecision"
           id="path176"
           d="m 39.24818,267.01652 c 0.171373,0.0406 0.333727,0.13079 0.432943,0.27961 0.06314,0.0677 -0.03608,0.13079 -0.09922,0.12628 -0.166864,-0.0722 -0.311178,-0.21648 -0.333727,-0.40589 z" />
        <path
           inkscape:connector-curvature="0"
           style="clip-rule:evenodd;fill:#010101;fill-rule:evenodd;stroke:#010101;stroke-width:0.00422796;image-rendering:optimizeQuality;shape-rendering:geometricPrecision;text-rendering:geometricPrecision"
           id="path178"
           d="m 36.393459,267.10221 c 0.162354,-0.018 0.320198,-0.018 0.482552,-0.018 0.06314,0.0857 0.126275,0.17588 0.139804,0.27961 -0.03157,0 -0.09922,0 -0.130785,-0.005 -0.03608,-0.0586 -0.07216,-0.11726 -0.108235,-0.17588 -0.130785,-0.005 -0.2751,0.0135 -0.383336,-0.0812 z" />
        <path
           inkscape:connector-curvature="0"
           style="clip-rule:evenodd;fill:#f1c63c;fill-rule:evenodd;stroke:#f1c63c;stroke-width:0.00422796;image-rendering:optimizeQuality;shape-rendering:geometricPrecision;text-rendering:geometricPrecision"
           id="path180"
           d="m 39.103865,267.26907 c 0.175884,-0.009 0.302159,0.12628 0.347257,0.27961 0.05412,0.17137 0.193923,0.28863 0.275099,0.44196 -0.05863,0.009 -0.121765,0.0135 -0.180393,0.018 -0.0451,-0.11274 -0.139804,-0.1849 -0.23902,-0.24804 0.04059,-0.0271 0.08118,-0.0541 0.126275,-0.0812 -0.198433,-0.0361 -0.320198,-0.2255 -0.329218,-0.4104 z" />
        <path
           inkscape:connector-curvature="0"
           style="clip-rule:evenodd;fill:#f1c63c;fill-rule:evenodd;stroke:#f1c63c;stroke-width:0.00422796;image-rendering:optimizeQuality;shape-rendering:geometricPrecision;text-rendering:geometricPrecision"
           id="path182"
           d="m 39.527789,267.6028 c 0.112746,-0.0496 0.220982,-0.10824 0.329217,-0.16686 0.157844,0.018 0.27961,0.14882 0.320198,0.29764 -0.144314,0.0316 -0.26608,-0.0541 -0.387845,-0.12627 0.05863,0.0947 0.126275,0.1849 0.171373,0.28412 -0.193922,0.0225 -0.351766,-0.12628 -0.432943,-0.28863 z" />
        <path
           inkscape:connector-curvature="0"
           style="clip-rule:evenodd;fill:#f1c63c;fill-rule:evenodd;stroke:#f1c63c;stroke-width:0.00422796;image-rendering:optimizeQuality;shape-rendering:geometricPrecision;text-rendering:geometricPrecision"
           id="path184"
           d="m 40.709364,267.61633 c 0.198432,0.0767 0.166863,0.32922 0.279609,0.48706 -0.144314,0.0857 -0.333727,0.0812 -0.487061,0.0226 -0.06765,-0.018 -0.09471,-0.0677 -0.08118,-0.13981 0.09922,-0.0135 0.193922,0.0361 0.284119,0.0677 -0.03157,-0.0586 -0.05863,-0.11274 -0.08569,-0.17137 0.06765,-0.0722 0.07216,-0.17588 0.0902,-0.26608 z" />
        <path
           inkscape:connector-curvature="0"
           style="clip-rule:evenodd;fill:#020100;fill-rule:evenodd;stroke:#020100;stroke-width:0.00422796;image-rendering:optimizeQuality;shape-rendering:geometricPrecision;text-rendering:geometricPrecision"
           id="path186"
           d="m 40.79505,268.4732 c 0.108236,0 0.220982,0.0135 0.2751,0.12627 -0.103726,-0.0135 -0.198433,-0.0586 -0.2751,-0.12627 z" />
      </g>
    </g>
  </g>
</svg>
