<?xml version="1.0" encoding="UTF-8" standalone="no"?>
<!-- Created with Inkscape (http://www.inkscape.org/) -->

<svg
   xmlns:osb="http://www.openswatchbook.org/uri/2009/osb"
   xmlns:dc="http://purl.org/dc/elements/1.1/"
   xmlns:cc="http://creativecommons.org/ns#"
   xmlns:rdf="http://www.w3.org/1999/02/22-rdf-syntax-ns#"
   xmlns:svg="http://www.w3.org/2000/svg"
   xmlns="http://www.w3.org/2000/svg"
   xmlns:sodipodi="http://sodipodi.sourceforge.net/DTD/sodipodi-0.dtd"
   xmlns:inkscape="http://www.inkscape.org/namespaces/inkscape"
   width="60mm"
   height="60mm"
   viewBox="0 0 60.000001 60.000001"
   version="1.1"
   id="svg8"
   inkscape:version="0.92.4 (5da689c313, 2019-01-14)"
   sodipodi:docname="pp-sicily.svg"
   inkscape:export-filename="/home/peppe/Documenti/partitopiratasiculo.github.io/pp-sicily.png"
   inkscape:export-xdpi="169.33333"
   inkscape:export-ydpi="169.33333">
  <defs
     id="defs2">
    <linearGradient
       id="linearGradient5244"
       osb:paint="solid">
      <stop
         style="stop-color:#ffffff;stop-opacity:1;"
         offset="0"
         id="stop5242" />
    </linearGradient>
    <inkscape:perspective
       id="perspective61"
       inkscape:persp3d-origin="525 : 233.33333 : 1"
       inkscape:vp_z="1050 : 350 : 1"
       inkscape:vp_y="0 : 1000 : 0"
       inkscape:vp_x="0 : 350 : 1"
       sodipodi:type="inkscape:persp3d" />
    <style
       id="style6"
       type="text/css">
   
    .str1 {stroke:#1F1A17;stroke-width:0.1764}
    .str2 {stroke:#1F1A17;stroke-width:0.3528}
    .str0 {stroke:#131516;stroke-width:0.3528}
    .str4 {stroke:#EEB300;stroke-width:0.3528}
    .str3 {stroke:#F5D300;stroke-width:0.3528}
    .fil6 {fill:none}
    .fil7 {fill:#1F1A17}
    .fil9 {fill:white}
    .fil12 {fill:#009F3C}
    .fil10 {fill:#00A03B}
    .fil5 {fill:#2DA638}
    .fil8 {fill:#4E9145}
    .fil11 {fill:#65B857}
    .fil1 {fill:#DA2724}
    .fil4 {fill:#E4A615}
    .fil3 {fill:#EFC899}
    .fil13 {fill:#F3E400}
    .fil0 {fill:#F5CB00}
    .fil2 {fill:#1F1A17;fill-rule:nonzero}
    .fil14 {fill:#EEB300;fill-rule:nonzero}
   
  </style>
    <metadata
       id="ID_0-Layer" />
    <inkscape:perspective
       sodipodi:type="inkscape:persp3d"
       inkscape:vp_x="0 : 0.5 : 1"
       inkscape:vp_y="0 : 1000 : 0"
       inkscape:vp_z="1 : 0.5 : 1"
       inkscape:persp3d-origin="0.5 : 0.33333333 : 1"
       id="perspective2917" />
    <clipPath
       clipPathUnits="userSpaceOnUse"
       id="clipPath5255">
      <g
         inkscape:label="Clip"
         id="use5257">
        <g
           transform="matrix(1.3715612,0,0,2.0573417,-74.763741,-178.28074)"
           id="g5267">
          <rect
             y="201.85307"
             x="54.509956"
             height="29.163845"
             width="43.74577"
             id="rect5263"
             style="clip-rule:evenodd;opacity:1;fill:#da272f;fill-opacity:1;fill-rule:nonzero;stroke:none;stroke-width:0.03682304;stroke-linecap:round;stroke-linejoin:round;stroke-miterlimit:4;stroke-dasharray:none;stroke-dashoffset:1;stroke-opacity:1;image-rendering:optimizeQuality;shape-rendering:geometricPrecision;text-rendering:geometricPrecision" />
          <path
             sodipodi:nodetypes="cccc"
             id="path5265"
             d="m 54.509958,201.85307 v 29.16384 h 43.745763 z"
             style="clip-rule:evenodd;fill:#f5ca00;fill-opacity:1;fill-rule:evenodd;stroke:none;stroke-width:0.14729215px;stroke-linecap:butt;stroke-linejoin:miter;stroke-opacity:1;image-rendering:optimizeQuality;shape-rendering:geometricPrecision;text-rendering:geometricPrecision"
             inkscape:connector-curvature="0" />
        </g>
      </g>
    </clipPath>
  </defs>
  <sodipodi:namedview
     id="base"
     pagecolor="#ffffff"
     bordercolor="#666666"
     borderopacity="1.0"
     inkscape:pageopacity="0"
     inkscape:pageshadow="2"
     inkscape:zoom="2.9027778"
     inkscape:cx="31.552428"
     inkscape:cy="117.79379"
     inkscape:document-units="mm"
     inkscape:current-layer="layer1"
     showgrid="false"
     units="mm"
     inkscape:window-width="1920"
     inkscape:window-height="1016"
     inkscape:window-x="0"
     inkscape:window-y="27"
     inkscape:window-maximized="1"
     inkscape:pagecheckerboard="false"
     borderlayer="false"
     inkscape:showpageshadow="true" />
  <metadata
     id="metadata5">
    <rdf:RDF>
      <cc:Work
         rdf:about="">
        <dc:format>image/svg+xml</dc:format>
        <dc:type
           rdf:resource="http://purl.org/dc/dcmitype/StillImage" />
        <dc:title></dc:title>
      </cc:Work>
    </rdf:RDF>
  </metadata>
  <g
     inkscape:label="Livello 1"
     inkscape:groupmode="layer"
     id="layer1"
     transform="translate(0,-237)">
    <circle
       style="fill:#ffffff;fill-opacity:1;stroke:none;stroke-width:0.32214081;stroke-opacity:1"
       id="path1605"
       cx="30"
       cy="267"
       r="29.5" />
    <g
       id="g6578"
       transform="matrix(0.98039216,0,0,0.98039216,0.5882352,5.2352933)"
       inkscape:export-filename="/home/peppe/Documenti/spillette/pp-sicily.png"
       inkscape:export-xdpi="457.41019"
       inkscape:export-ydpi="457.41019">
      <path
         d="m 9.493903,246.4939 a 29,29 0 0 1 28.011849,-7.50575 29,29 0 0 1 20.506097,20.5061 29,29 0 0 1 -7.505752,28.01185 L 30,267 Z"
         sodipodi:end="0.78539816"
         sodipodi:start="3.9269908"
         sodipodi:ry="29"
         sodipodi:rx="29"
         sodipodi:cy="267"
         sodipodi:cx="30"
         sodipodi:type="arc"
         id="path5276-7"
         style="fill:#ec1b23;fill-opacity:1;stroke-width:1.77219999" />
      <path
         d="m 50.506097,287.5061 a 29,29 0 0 1 -41.0121934,0 29,29 0 0 1 -6e-7,-41.0122 L 30,267 Z"
         sodipodi:end="3.9269908"
         sodipodi:start="0.78539816"
         sodipodi:ry="29"
         sodipodi:rx="29"
         sodipodi:cy="267"
         sodipodi:cx="30"
         sodipodi:type="arc"
         id="path5276"
         style="fill:#fff100;fill-opacity:1;stroke-width:1.77219999" />
    </g>
    <g
       id="g4122"
       transform="matrix(0.22288715,0,0,0.22288715,1.5687383,238.56863)"
       inkscape:export-filename="/home/peppe/Documenti/spillette/pp-sicily.png"
       inkscape:export-xdpi="457.41019"
       inkscape:export-ydpi="457.41019">
      <g
         id="g4120">
        <path
           inkscape:connector-curvature="0"
           d="M 127.561,8.504 C 61.805,8.504 8.503,61.806 8.503,127.56 c 0,65.752 53.302,119.052 119.058,119.055 65.75,0 119.052,-53.303 119.052,-119.055 0,-65.754 -53.302,-119.056 -119.052,-119.056 z m 0,221.102 c -56.357,0 -102.048,-45.688 -102.048,-102.045 0,-56.361 45.691,-102.048 102.048,-102.048 56.362,0 102.046,45.688 102.046,102.048 -0.001,56.358 -45.684,102.045 -102.046,102.045 z"
           id="path4118" />
      </g>
    </g>
    <g
       id="g4128"
       transform="matrix(0.22288715,0,0,0.22288715,1.5687383,238.56863)"
       inkscape:export-filename="/home/peppe/Documenti/spillette/pp-sicily.png"
       inkscape:export-xdpi="457.41019"
       inkscape:export-ydpi="457.41019">
      <g
         id="g4126">
        <path
           inkscape:connector-curvature="0"
           d="m 126.265,55.796 c -14.248,0 -25.147,1.39 -33.31,3.194 V 43.104 h -10.31 v 18.797 c -7.486,2.666 -10.512,5.196 -10.512,5.196 0,0 4.312,-0.361 10.512,0.131 v 97.745 c -2.418,4.448 -3.968,9.744 -3.968,16.141 0,17.646 8.528,33.511 8.528,33.511 0,0 -2.579,-9.919 -2.532,-16.853 0.152,-22.449 9.336,-34.371 48.93,-40.852 16.963,-2.775 69.205,-6.346 68.804,-45.406 C 202.168,87.927 187.54,55.796 126.265,55.796 Z m -21.018,89.03 c -3.504,2.151 -7.999,4.748 -12.292,8.21 V 68.734 c 15.4,3.365 33.708,12.898 33.707,39.21 10e-4,10.663 -1.387,24.588 -21.415,36.882 z"
           id="path4124" />
      </g>
    </g>
  </g>
</svg>
